<?xml version="1.0" encoding="utf-8"?>
<!-- Generator: Adobe Illustrator 22.1.0, SVG Export Plug-In . SVG Version: 6.00 Build 0)  -->
<svg version="1.1" id="Calque_1" xmlns="http://www.w3.org/2000/svg" xmlns:xlink="http://www.w3.org/1999/xlink" x="0px" y="0px"
	 viewBox="0 0 302.4 234.8" style="enable-background:new 0 0 302.4 234.8;" xml:space="preserve">
<style type="text/css">
	.st0{fill-rule:evenodd;clip-rule:evenodd;fill:#0462D4;}
	.st1{fill:#FFFFFF;}
	.st2{fill-rule:evenodd;clip-rule:evenodd;fill:#000066;}
	.st3{fill:#F3F3F3;}
	.st4{fill:none;}
	.st5{fill:#F20000;}
	.st6{fill:#0462D4;stroke:#FFFFFF;stroke-width:0.75;stroke-miterlimit:10;}
	.st7{stroke:#FFFFFF;stroke-width:0.75;stroke-miterlimit:10;}
</style>
<g>
	<g>
		<path class="st0" d="M120.5,226.7c-58.7,17.2-110.3,5.3-118.9-29.3c-4.1-16.7,2.5-35.8,16.7-54.1C7.5,159.2,3.1,175.2,7,189.5
			C15.7,221,62.5,234.8,120.5,226.7L120.5,226.7z"/>
		<path class="st1" d="M69.6,234.8c-18.5,0-34.8-3.6-47-10.6C11.4,217.8,4,208.5,1.2,197.4c-4-16.1,2-35.4,16.8-54.4l0.6,0.4
			C7.5,159.8,3.6,175.7,7.3,189.4c8.4,30.4,53.8,45.2,113.1,36.9l0.2,0.7C102.8,232.2,85.4,234.8,69.6,234.8z M12.7,151.8
			C2.4,167.8-1.4,183.7,2,197.2c2.7,10.9,10,20,21,26.3c21.6,12.4,55.8,13.9,92.4,4.1c-26.8,3.2-51,1.7-70.2-4.4
			c-20.9-6.7-34.3-18.3-38.5-33.7C3.5,178.1,5.6,165.2,12.7,151.8z"/>
	</g>
	<g>
		<path class="st1" d="M69.6,234.7c-18.5,0-34.7-3.5-47-10.6c-11.2-6.4-18.6-15.7-21.3-26.7c-4-16.1,2-35.4,16.8-54.3l0.4,0.3
			c-11.2,16.4-15.1,32.3-11.3,46c4.2,15.2,17.4,26.7,38.1,33.3c20.3,6.5,46.3,7.8,75.1,3.7l0.1,0.5
			C102.8,232.1,85.4,234.7,69.6,234.7z M14.3,149.1c-11.6,16.9-16,33.8-12.5,48.1c2.7,10.9,10,20.1,21.1,26.4
			c21.9,12.6,57,13.9,94.2,3.7c-27.5,3.5-52.3,2-71.9-4.2c-20.9-6.6-34.2-18.3-38.4-33.7C3.4,177.4,6,163.5,14.3,149.1z"/>
		<path class="st1" d="M69.6,235.1c-18.8,0-35.1-3.7-47.2-10.6C11.2,218,3.7,208.6,1,197.5c-4-16.2,2-35.6,16.9-54.6l0.2-0.3l1,0.7
			l-0.2,0.3c-11.1,16.3-15,32.1-11.3,45.7c4.1,15.1,17.2,26.5,37.8,33.1c20.3,6.5,46.2,7.7,74.9,3.7l0.3,0l0.3,1.2l-0.3,0.1
			C103.2,232.4,85.6,235.1,69.6,235.1z M10,156.7C2,171-0.8,185.2,2.2,197.2c2.7,10.8,9.9,19.9,20.9,26.2
			c20.7,11.9,53.6,13.7,88.8,5c-25.5,2.7-48.5,1-66.8-4.8c-21-6.7-34.4-18.4-38.7-33.9C3.6,179.6,4.9,168.4,10,156.7z M117.1,227.3
			l0,0.2c0.6-0.2,1.1-0.3,1.7-0.5C118.2,227.1,117.6,227.2,117.1,227.3z M14.2,149.1l0.2,0.1c0.6-1,1.1-1.9,1.8-2.9
			C15.5,147.2,14.9,148.1,14.2,149.1z"/>
	</g>
</g>
<g>
	<path class="st2" d="M263.4,174.3L263.4,174.3c-21.1,10.8-46.3,20.3-73.5,27c-84,20.8-156.6,6.4-161-28.2c-2.5-19.8,6.6-34.6,24-48
		c0.4,0,0.9,0,1.3-0.1c1-0.2,1.7-0.7,2.4-1.5l0.8-0.7L59,122l1-0.4c0.8-0.5,1.7-1,2.5-1.4c0.6-0.3,1.1-0.7,1.7-1.1
		c0.4-0.3,0.8-0.6,1.1-1c0.1-0.1,0.2-0.1,0.4-0.2c0.7-0.2,1.5-0.8,1.6-0.9c0.8-0.2,1.4-1,2.2-1.2c0.6-0.2,1.1-0.5,1.6-0.8
		c0.5-0.3,1-0.7,1.6-1l0.8-0.5c0.5-0.2,0.8-0.6,1.3-0.8l1.5-0.7c0.4-0.3,0.7-0.3,1.2-0.7l1.1-0.5c0.5-0.3,0.6-0.2,1.4-0.8
		c0.5-0.4,1-0.5,1.6-0.9c0.2-0.1,0.5-0.2,0.9-0.3c-18,11.3-38,28.3-33.9,51c6.9,38.1,101.6,37.4,158.2,26.1
		c56.6-11.3,59.3-15.7,82.1-26.8"/>
	<path class="st1" d="M115.3,211.2c-4.2,0-8.4-0.1-12.4-0.3c-25.6-1.4-46.1-6.8-59.2-15.9c-8.9-6.1-13.9-13.5-15-21.9
		c-2.4-18.4,5.3-33.8,24.1-48.2l0.1-0.1l0.1,0c0.4,0,0.8,0,1.2-0.1c0.8-0.2,1.6-0.6,2.3-1.4l0.8-0.7l1.6-0.9l1-0.4
		c0.2-0.1,0.4-0.2,0.6-0.3c0.6-0.4,1.3-0.7,2-1c0.4-0.2,0.8-0.5,1.2-0.8c0.1-0.1,0.3-0.2,0.4-0.3c0.5-0.3,0.8-0.6,1-0.9
		c0.1-0.2,0.3-0.2,0.4-0.2c0,0,0.1,0,0.1,0c0.5-0.2,1.1-0.6,1.4-0.7c0.1-0.1,0.1-0.1,0.2-0.1c0.4-0.1,0.7-0.3,1-0.6
		c0.4-0.3,0.8-0.5,1.2-0.7c0.5-0.1,0.9-0.4,1.3-0.6l0.2-0.1c0.2-0.1,0.5-0.3,0.7-0.5c0.3-0.2,0.6-0.4,0.9-0.6l0.8-0.5
		c0.2-0.1,0.4-0.2,0.6-0.4c0.2-0.2,0.5-0.3,0.7-0.4l1.5-0.7c0.1-0.1,0.3-0.2,0.4-0.2c0.2-0.1,0.4-0.2,0.7-0.4l1.2-0.6
		c0.2-0.1,0.3-0.2,0.5-0.3c0.2-0.1,0.4-0.2,0.9-0.5c0.3-0.2,0.5-0.3,0.7-0.4c0.3-0.1,0.6-0.3,0.9-0.5c0.2-0.1,0.4-0.2,0.7-0.3
		l2.2-0.7l-1.7,1.1c-25.9,16.3-37,33-33.8,50.8c1.2,6.9,5.5,12.8,12.5,17.6c27.6,18.8,95.5,18.3,145.4,8.4
		c48.1-9.6,57.5-14.4,73-22.2c2.8-1.4,5.7-2.9,9.1-4.5l0.2,0.4c-3.4,1.6-6.3,3.1-9,4.5c-15.5,7.9-24.9,12.7-73.1,22.3
		c-50,10-118.1,10.4-145.8-8.4c-7.2-4.9-11.5-10.9-12.7-17.9c-3.1-17.1,6.7-33,29.8-48.6l-0.7,0.3c-0.3,0.2-0.5,0.3-0.7,0.4
		c-0.1,0.1-0.3,0.1-0.4,0.2l-1.5,0.7c-0.2,0.1-0.5,0.2-0.7,0.4c-0.2,0.1-0.4,0.3-0.6,0.4l-0.8,0.5c-0.3,0.2-0.6,0.3-0.8,0.5
		c-0.2,0.2-0.5,0.3-0.7,0.5l-0.2,0.1c-0.4,0.3-0.9,0.5-1.4,0.6c-0.4,0.1-0.7,0.3-1.1,0.6c-0.4,0.3-0.7,0.5-1.2,0.6c0,0,0,0-0.1,0
		c-0.3,0.2-0.9,0.6-1.5,0.8c-0.1,0-0.1,0-0.2,0c-0.1,0-0.1,0-0.1,0.1c-0.3,0.4-0.6,0.7-1.1,1c-0.1,0.1-0.3,0.2-0.4,0.3
		c-0.4,0.3-0.9,0.6-1.3,0.8c-0.7,0.3-1.3,0.7-1.9,1c-0.2,0.1-0.4,0.2-0.6,0.3l-1,0.4l-1.6,0.9l-0.8,0.7c-0.8,0.8-1.6,1.3-2.5,1.5
		c-0.4,0.1-0.9,0.1-1.3,0.1c-18.6,14.3-26.2,29.4-23.8,47.7c1.1,8.3,6.1,15.6,14.8,21.6c27.3,18.7,85.9,21.3,145.9,6.5
		c26.4-6.5,51.8-15.9,73.5-27l0.2,0.4c-21.7,11.1-47.1,20.5-73.6,27C164.2,207.9,138.7,211.2,115.3,211.2z"/>
</g>
<g>
	<g>
		<path class="st0" d="M143.8,83.9c-0.3,0.1-0.6,0.2-0.9,0.3c0,0,0.1-0.1,0.1-0.1C143.3,84,143.6,83.9,143.8,83.9L143.8,83.9
			L143.8,83.9z M252.6,181.3L252.6,181.3c-21.1,10.8-46.3,20.3-73.5,27c-84,20.8-156.6,6.4-161-28.2c-4.4-34.5,26.5-53.8,75.2-76.8
			c0,0,0,0.1,0,0.1C78.8,112,31.7,133,37.8,166.8c6.9,38.1,101.6,37.4,158.2,26.1c56.6-11.3,59.3-15.7,82.1-26.8"/>
		<path class="st1" d="M104.4,218.3c-30.3,0-56-5.5-71.6-16.1c-8.9-6.1-14-13.5-15.1-22c-2.1-16.4,3.5-30.1,17.8-43
			c14.1-12.8,36-24,57.6-34.2l0.4-0.2l0.3,0.7l-0.3,0.2c-1.8,1.1-4,2.3-6.5,3.7c-18.9,10.5-54.1,30-48.8,59.4
			c1.2,6.8,5.4,12.7,12.5,17.5c27.6,18.7,95.4,18.3,145.3,8.3c48.1-9.6,57.5-14.4,72.9-22.2c2.8-1.4,5.7-2.9,9.1-4.5l0.3,0.7
			c-3.4,1.6-6.3,3.1-9,4.5c-15.5,7.9-24.9,12.7-73.1,22.3c-50,10-118.1,10.4-145.9-8.5c-7.2-4.9-11.5-11-12.8-18
			c-5.2-28.8,27.4-48.1,46.8-58.9c-46.9,23-69.8,41.3-65.8,72c1.1,8.3,6,15.5,14.8,21.5c27.3,18.7,85.9,21.3,145.8,6.4
			c26.4-6.5,51.8-15.9,73.5-27l0.3,0.7c-21.7,11.2-47.2,20.5-73.6,27.1C153.2,215.1,127.5,218.3,104.4,218.3z M141.1,85.1l1.7-1.2
			c0.1-0.1,0.2-0.1,0.3-0.1c0.1,0,0.2,0,0.2-0.1c0.2-0.1,0.4-0.1,0.6-0.1l1.9,0.2L141.1,85.1z"/>
	</g>
	<g>
		<path class="st1" d="M104.6,218.2c-4.2,0-8.4-0.1-12.4-0.3c-25.6-1.4-46.1-6.8-59.2-15.9c-8.9-6.1-13.9-13.5-15-21.9
			c-2.1-16.4,3.5-30,17.7-42.9c14.1-12.7,36-24,57.6-34.2l0.2-0.1l0.2,0.5l-0.2,0.1c-1.8,1.1-4,2.3-6.5,3.7
			c-18.9,10.5-54.2,30-48.9,59.6c1.2,6.9,5.5,12.8,12.5,17.6c27.6,18.8,95.5,18.3,145.4,8.4c48.1-9.6,57.5-14.4,73-22.2
			c2.8-1.4,5.7-2.9,9.1-4.5l0.2,0.4c-3.4,1.6-6.3,3.1-9,4.5c-15.5,7.9-24.9,12.7-73.1,22.3c-50,10-118.1,10.4-145.8-8.4
			c-7.2-4.9-11.5-10.9-12.7-17.9c-5.4-29.9,30.1-49.5,49.1-60.1c0.6-0.3,1.2-0.6,1.7-0.9c-49.7,23.9-74.1,42.5-70.1,74.2
			c1.1,8.3,6.1,15.6,14.8,21.6c27.3,18.7,85.9,21.3,145.9,6.5c26.4-6.5,51.8-15.9,73.5-27l0.2,0.4c-21.7,11.1-47.1,20.5-73.6,27
			C153.5,214.9,127.9,218.2,104.6,218.2z M141.7,84.8l1.1-0.8c0.1,0,0.1-0.1,0.2-0.1c0.1,0,0.2,0,0.3-0.1c0.2-0.1,0.4-0.1,0.5-0.1
			l1.3,0.1L141.7,84.8z"/>
		<path class="st1" d="M104.6,218.6c-4.2,0-8.4-0.1-12.5-0.3c-25.7-1.4-46.2-6.9-59.4-15.9c-9-6.1-14.1-13.6-15.2-22.2
			c-2.1-16.5,3.6-30.3,17.9-43.2c14.1-12.8,36.1-24,57.7-34.2l0.6-0.3l0.5,1.2l-0.5,0.3c-1.8,1.1-4,2.3-6.5,3.7
			c-18.9,10.5-54,29.9-48.7,59.2c1.2,6.8,5.4,12.6,12.4,17.3c27.5,18.7,95.3,18.2,145.1,8.3c48.1-9.6,57.4-14.3,72.9-22.2
			c2.8-1.4,5.7-2.9,9.1-4.5l0.3-0.2l0.5,1.1l-0.3,0.2c-3.4,1.6-6.3,3.1-9,4.5c-15.5,7.9-24.9,12.7-73.2,22.3
			c-50.1,10-118.3,10.4-146-8.5c-7.3-4.9-11.6-11.1-12.9-18.2c-4.6-25.3,19.8-43.3,39.1-54.7C35.9,132.9,15,151,18.7,180
			c1.1,8.2,6,15.4,14.7,21.3c27.2,18.6,85.7,21.2,145.6,6.4c26.4-6.5,51.8-15.9,73.4-27l0.3-0.2l0.6,1.1l-0.3,0.2
			c-21.7,11.2-47.2,20.5-73.7,27.1C153.7,215.2,127.9,218.6,104.6,218.6z M88.4,105.7l0.1,0.2c1.2-0.7,2.3-1.3,3.3-1.8
			C90.6,104.6,89.5,105.2,88.4,105.7z M139.8,85.7l2.8-2.1c0.1-0.1,0.2-0.1,0.4-0.2c0,0,0.1,0,0.2-0.1c0.2-0.1,0.4-0.2,0.7-0.1
			l3.2,0.3L139.8,85.7z"/>
	</g>
</g>
<g>
	<path d="M69.9,120.7c0.5-1.1,0.9-2.5,1.3-3.9c35.8,10.7,0.6-2.3,0.9-3.4c-1.4-3-0.2-6.9-0.2-6.9c3.3,1.7,16.7,12.5,45.5,9.9
		c1.3,3.8,7.9,10.7,7.8,10.8c-1.4,1.4-18.5,6.8-18.5,6.8s16.4-2.4,19.1-3.9c0.3-0.2,0.7,1,0.8,1.3c0.1,0.4-12.8,5.9-12.8,5.9
		s13.1-4.8,13.3-4.5c0.4,0.7,4.8,5.4,5.3,6.1c0.1,0.2,0.2,0.7,0.4,0.9c1.1,1.9,4.2,5.2,5.5,7c0.9,1.3,3.7,3.4,4.6,4.8
		c0.7,1.1,6.1,7.5,7.6,8.7c0.5,0.4,3.6,3.9,5.1,4.6c-0.7,0.1-13.6-6.6-15.5-8.5c-1.5-0.3,10.3,8.1,8.8,8c-0.9-0.1-1.9-0.2-2.8-0.3
		c-2.1-0.2-14.3-10.6-22-9.9c-2.5-0.2,10.6,9,8.2,8.5c-1.3-0.3-2.7-0.6-4-1.1c-1.1-0.8-3.1-2-4.1-2.7c-1.4-0.9-6.3,2.1-7.6,1.2
		c-0.2-0.1-1.5-0.8-1.8-1c-0.2-0.2,15.7-15.3,15.7-15.3s-15.7,12.5-16.6,12.9c-0.9,0.4-3.4,1.2-3.8,1.1c-0.3,0-5.4-3.7-7.9-6.7
		c-0.8-0.9-3.5-4.7-3.5-4.7l-1.2,6c0,0-4.1,2.1-5.4,2.6c-2.3,0.8-9.2,2.5-9.2,2.5s6.7-0.4,9-0.9c1.3-0.3,5.2-2.2,5.2-2.2l-1,4.9
		c0,0-2.6,1.2-3.5,1.5c-6.2,1.7-19.6,3.2-19.6,3.2l18.2-0.3c0,0-0.8,2.8-1.1,3.5c-0.6,1.5-1.6,4.5-2.1,6.2c-1.8,0.7,0.4-3.1,0.2-5.6
		c-0.1-1.5-3.3-1.9-4.3-1.4c-0.2,0.1-8.8,3.5-9,3.6c-2.3,1-0.5,9.6-2.7,10.8c0-0.2,0-0.4,0-0.6c-0.1-2.4-0.1-7.2-0.1-9.6
		c0-1.7-2.6-7.6-2.6-7.6l-1.9-1.4c0,0,1.1-8.4,1.2-8.9c0.1-0.6-1.2-12.8-1.2-14.1c-0.1-1.2-0.6-3.5-0.5-4.7
		C67.1,130.4,68.5,123.9,69.9,120.7L69.9,120.7z"/>
	<path class="st1" d="M71.8,181.2l0-0.4c0-0.2,0-0.4,0-0.6c-0.1-2.4-0.1-7.2-0.1-9.6c0-1.5-2.2-6.8-2.5-7.5l-2-1.4l0-0.1
		c0-0.3,1.1-8.4,1.2-8.9c0.1-0.4-0.5-5.9-0.8-9.5c-0.2-2.3-0.4-4.1-0.4-4.6c0-0.5-0.1-1.1-0.2-1.8c-0.2-1.1-0.3-2.2-0.3-2.9
		c0.2-3.3,1.6-9.9,3-13.2c0.4-1,0.9-2.3,1.3-3.9l0.1-0.2l0.2,0.1c10.6,3.2,14.4,4.1,15.5,4.2c-1-0.7-4.5-2.2-7.3-3.4
		c-6.5-2.8-7.6-3.4-7.6-3.9c-1.1-2.4-0.6-5.4-0.2-7l0-0.1l0-0.4l0.4,0.2c0.4,0.2,0.9,0.5,1.5,0.9c5,3.1,18.4,11.3,43.9,9l0.2,0
		l0.1,0.2c1,2.8,4.8,7.3,6.7,9.5c1.2,1.4,1.2,1.4,1,1.6c-1.1,1.1-10.6,4.3-15.6,5.9c4.9-0.8,14.1-2.3,15.9-3.4
		c0.1-0.1,0.2-0.1,0.3,0c0.5,0.2,0.9,1.4,0.9,1.5c0.1,0.2,0.2,0.5-6,3.3c6.3-2.2,6.4-2,6.5-1.8c0.2,0.3,1.5,1.7,2.6,3
		c1.3,1.4,2.4,2.7,2.7,3.1c0.1,0.1,0.1,0.3,0.2,0.5c0,0.1,0.1,0.3,0.2,0.4c0.6,1.1,1.9,2.6,3.2,4.1c0.9,1.1,1.7,2.1,2.3,2.8
		c0.4,0.6,1.3,1.5,2.2,2.3c0.9,0.9,1.9,1.8,2.4,2.5c0.8,1.1,6.2,7.5,7.6,8.6c0.2,0.1,0.5,0.5,1,0.9c1.1,1.2,3,3.1,4,3.6l0.8,0.4
		l-0.9,0.1c0,0,0,0,0,0c-0.8,0-8.7-4.1-13.1-6.8c0.6,0.5,1.2,1,1.8,1.4c4.7,3.7,5.1,4.2,5,4.6c0,0.1-0.1,0.2-0.4,0.2
		c-0.8-0.1-1.8-0.2-2.8-0.3c-0.7-0.1-2.3-1.1-4.6-2.6c-4.8-3.1-12.1-7.8-17.4-7.3c0,0,0,0-0.1,0c0.3,0.7,2.9,2.8,4.7,4.3
		c3.6,3,4.3,3.6,4.1,4c-0.1,0.2-0.3,0.2-0.6,0.2c-1.4-0.3-2.7-0.6-4-1.1l-0.1,0c-0.8-0.6-2.1-1.4-3.1-2l-1-0.7
		c-0.6-0.4-2.2,0.2-3.6,0.6c-1.7,0.6-3.3,1.1-4.1,0.5c-0.1,0-0.3-0.2-0.6-0.3c-0.5-0.2-1-0.5-1.3-0.7l-0.1-0.1l0-0.1
		c0-0.1,0-0.4,11.7-11.5c-4.8,3.8-11.6,9.1-12.2,9.4c-0.8,0.4-3.4,1.2-4,1.1c-0.5-0.1-5.6-3.9-8.1-6.8c-0.6-0.7-2.4-3.2-3.2-4.3
		l-1.1,5.5l-0.1,0.1c-0.2,0.1-4.1,2.2-5.4,2.6c-1.4,0.5-4.4,1.3-6.6,1.8c2.1-0.2,4.9-0.4,6.2-0.7c1.3-0.3,5.1-2.2,5.2-2.2l0.5-0.2
		l-1.1,5.5l-0.1,0.1c-0.1,0-2.6,1.2-3.5,1.5c-3.9,1-10.5,2-15,2.6l13.8-0.2l-0.1,0.3c0,0.1-0.8,2.8-1.1,3.6
		c-0.6,1.6-1.6,4.5-2.1,6.2l0,0.1l-0.1,0c-0.1,0-0.6,0.2-0.9-0.1c-0.4-0.4-0.2-1.2,0.2-2.4c0.3-1,0.6-2.3,0.5-3.3
		c0-0.4-0.4-0.7-0.7-0.9c-1-0.5-2.6-0.6-3.2-0.3c-0.1,0-1.7,0.7-4.4,1.8c-2.1,0.8-4.5,1.8-4.6,1.9c-1,0.5-1.1,2.8-1.2,5.1
		c-0.1,2.6-0.2,5-1.5,5.7L71.8,181.2z M67.7,161.4l1.9,1.3l0,0.1c0.1,0.2,2.6,6,2.6,7.7c0,2.3,0,7.1,0.1,9.6c0,0,0,0.1,0,0.1
		c0.7-0.9,0.8-2.9,0.9-5c0.1-2.6,0.2-5,1.5-5.6c0.1,0,1.8-0.7,4.7-1.9c2.1-0.8,4.2-1.7,4.3-1.7c0.8-0.4,2.6-0.3,3.7,0.3
		c0.6,0.3,1,0.8,1,1.3c0.1,1.1-0.3,2.4-0.6,3.5c-0.2,0.7-0.5,1.8-0.3,1.9c0,0,0.1,0,0.2,0c0.5-1.7,1.5-4.5,2.1-6.1
		c0.2-0.6,0.8-2.5,1-3.2L73,164.1l0-0.5c0.1,0,13.4-1.5,19.5-3.2c0.8-0.2,2.8-1.1,3.3-1.4l0.8-4.3c-1.1,0.5-3.8,1.8-4.8,2
		c-2.3,0.5-8.8,0.9-9,0.9l-0.1-0.5c0.1,0,6.9-1.7,9.2-2.5c1.2-0.4,4.6-2.2,5.3-2.5l1.3-6.4l0.3,0.5c0,0,2.7,3.8,3.5,4.7
		c2.5,2.9,7.4,6.5,7.8,6.7c0.3,0,2.7-0.7,3.6-1.1c0.6-0.3,10.2-7.9,16.5-12.9l0.3,0.4c-5.8,5.5-14.4,13.7-15.6,15
		c0.3,0.2,0.7,0.4,1,0.5c0.4,0.2,0.6,0.3,0.7,0.4c0.6,0.4,2.2-0.1,3.6-0.6c1.7-0.6,3.2-1.1,4-0.6l1,0.7c1,0.6,2.2,1.4,3,2
		c1.2,0.4,2.4,0.7,3.8,1c-0.5-0.6-2.3-2.1-3.8-3.3c-3.9-3.2-5.1-4.3-4.9-4.9c0.1-0.1,0.2-0.3,0.6-0.3c5.4-0.5,12.8,4.3,17.6,7.4
		c2,1.3,3.8,2.4,4.4,2.5c0.9,0.1,1.7,0.2,2.5,0.3c-0.7-0.7-2.9-2.5-4.6-3.8c-4.1-3.3-4.4-3.6-4.3-3.9c0-0.1,0.1-0.2,0.4-0.1l0.1,0
		l0.1,0.1c1.5,1.5,9.9,6,13.6,7.7c-0.9-0.8-1.8-1.7-2.6-2.5c-0.4-0.4-0.8-0.8-0.9-0.9c-1.5-1.2-6.9-7.5-7.7-8.7
		c-0.4-0.7-1.4-1.6-2.3-2.4c-0.9-0.9-1.8-1.7-2.2-2.4c-0.5-0.7-1.4-1.7-2.3-2.8c-1.3-1.5-2.6-3.1-3.3-4.2c-0.1-0.1-0.1-0.3-0.2-0.5
		c-0.1-0.2-0.1-0.3-0.2-0.4c-0.2-0.3-1.5-1.8-2.6-3c-1.1-1.3-2.2-2.5-2.6-2.9c-1,0.2-8.3,2.7-13.1,4.5l-0.2-0.5
		c4.5-1.9,11.7-5.1,12.6-5.8c-0.1-0.3-0.4-0.8-0.5-1c-2.9,1.5-18.4,3.8-19.1,3.9l-0.1-0.5c4.6-1.5,16.4-5.4,18.2-6.6
		c-0.2-0.2-0.5-0.6-0.9-1c-1.8-2.1-5.6-6.5-6.7-9.4c-25.5,2.3-38.9-6-44-9.1c-0.5-0.3-0.9-0.5-1.2-0.7c-0.4,1.6-0.8,4.3,0.3,6.5
		l0,0.1l0,0c0.5,0.5,4.3,2.1,7.3,3.5c7.3,3.2,8,3.7,7.9,4.2c-0.1,0.4-0.3,0.8-16.2-3.9c-0.4,1.5-0.9,2.7-1.3,3.7l0,0
		c-1.4,3.3-2.8,9.8-3,13c0,0.7,0.1,1.8,0.3,2.8c0.1,0.7,0.2,1.4,0.2,1.9c0,0.5,0.2,2.4,0.4,4.6c0.6,6.2,0.9,9.3,0.8,9.6
		C68.8,153.1,68,159,67.7,161.4z M123.8,154.3L123.8,154.3L123.8,154.3z M126.4,131.4C126.4,131.4,126.4,131.4,126.4,131.4
		C126.4,131.4,126.4,131.4,126.4,131.4z"/>
</g>
<g>
	<g>
		<path d="M203,16.4c-0.8-2.4-3.5-6-9.9-5.7c-6,0.2-10,6.5-10.5,7.1c-2.4,3.4-2.4,8.4-2.4,9.1c0,0.7,0.1,2.1,0.2,2.8
			c0.1,0.7,0.4,2.1,0.7,2.8c0.9,2,3.2,3.2,3.2,3.2l-0.9,1.4l-1.3,3l-1.7,3.3l-2.1,2.2l-4.5,4.1l-4.7,3.8c0,0-5.2,2.2-6.7,3
			c-1.3,0.7-3.8,2-5.2,2.5c-0.9,0.4-2.8,0.7-3.8,1.1c-0.9,0.3-2.5,1-3.3,1.4c-0.9,0.4-2.6,1.4-3.5,1.9c-0.6,0.3-2.5,1.4-2.5,1.4
			l-1.1-0.2l-1.3-0.5l-5.8-2.5l-4.7,8.3l4.1-10.1c0,0-2.2-0.6-2.9-1c-0.6-0.3-1.8-1.1-2.2-1.7c-0.5-0.6-1.2-2.1-1.4-2.9
			c-0.2-0.8-0.2-2.5-0.2-3.4c-0.1-0.8-0.2-3-0.2-3l1.8-2.9c0,0,1,0.2,1.5,0.2c0.5,0,1.5-0.2,1.9-0.3c0.6-0.2,1.6-0.9,2-1.3
			c0.7-0.6,1.8-2.1,2.3-2.9c0.6-1,1.1-2,1.6-3c0.6-1.1,2.5-3,3-4.1c0.3-0.6,0.7-1.9,0.9-2.6c0.1-0.6,0.3-2.4,0.3-2.4l0.7-1
			c0,0,2.1-3.3,2.3-3.6c0.1-0.2-3.8-1.1-6.4-3.4c-2.6-2.3-4.8-5-4.8-5s4,3.8,5.5,4.8c1.4,0.9,6.5,2.7,6.5,2.7s0.9,0.4,1.2-1.6
			c0.2-1.4-0.5-3-0.5-3.8c0-0.8-0.2-2.5-0.4-3.3c-0.3-1.1-1.3-3.1-1.8-4.1c-0.4-0.7-1.1-2.2-1.7-2.8c-0.6-0.7-2.1-1.8-2.9-2.3
			c-0.8-0.5-2.4-1.4-3.2-1.7c-1-0.3-3-0.1-4-0.1c-0.8-0.1-2-1-3.3-0.5c-0.4,0.2-1.6,0-1.6,0S129.1,2.1,129,2
			c-0.1-0.2-0.6-0.8-0.6-0.8s-0.1,0.8-0.2,1c-0.1,0.2-0.8,1.7-0.8,1.7s0-1.6-0.1-1.8c-0.2-0.3-0.8-1-0.8-1s0.1,2.1,0,2.5
			c0,0.4-0.4,1.2-0.4,1.2l-1.2-1.6l0.8,1.8l-1.3-1L125,5c0,0-0.2,0.3-0.3,0.3c-0.1,0-1-0.7-1-0.7s0.3,1.2-0.4,1.5
			c-0.2,0.1-0.6,0.5-0.8,0.7c-0.3,0.4-0.9,1.2-1.2,1.7c-0.4,0.7-0.8,2.4-1.1,3.2c-0.2,0.7-0.6,4.7-0.7,5.4c0,0.3,0.8,1.6,1,2.3
			c0.4,1.6,0.3,3,0.3,3s-0.3-4.5-2.1-4.5c-0.3,0-0.7,0.5-0.9,0.7c-0.3,0.4-0.6,1.4-0.8,1.8c-0.1,0.4-0.2,1.1-0.2,1.4
			c0,0.4,0.3,1.3,0.3,1.7c0,0.4,0,1.3,0,1.7c0,0.4-0.1,1.3,0,1.8c0,0.2,0.2,0.7,0.2,0.9c0,0.5-0.3,2-0.3,2l-2.7,3.4
			c0,0,0.4,1.8,1.2,2.4c1.8,1.3,9.1,5.3,9.1,5.3s-7.2-2.7-9.3-4.1c-3.2-2-3.4-3.9-3.4-3.9s-1.9,0.3-2.4,0.6
			c-0.6,0.3-1.7,1.1-2.2,1.6c-0.7,0.6-1.7,2.2-2.3,2.9c-0.8,0.9-2.6,2.7-3.4,3.6c-1,1.1-2.9,3.3-3.8,4.5c-1,1.4-2.7,4.3-3.5,5.8
			c-1.1,1.9-3,6-4,8c-0.6,1.2-2.1,3.5-2.6,4.8c-0.2,0.6-0.5,2-0.7,2.6c-0.3,1.1-1.1,3.2-1.5,4.3c-0.9,2.5-2,7.8-3.5,9.9
			c-0.4,0.6-1.7,1.1-2.1,1.7c-0.4,0.6-2.3,6.7-2.3,6.7s2.9,2.2,7.8,5.3c5.8,3.7,13.9,6.3,13.8,6.6c-0.3,0.6-7.3-1-13.5-3.7
			c-5.2-2.3-9.8-5.7-10-5.2c-0.4,1-1.4,3.2-1.2,4.4c0.1,0.8,1.7,2.4,1.7,2.4s-2,4.5-2.4,5.5c-0.2,0.4,13.5,6.4,20.9,9.2
			c4.4,1.7,24.1,3.9,23.4,2.7c-4.2-6.6-2.1-5.1-2.1-10.5c0-1.9,1.6-5.5,2-7.3c0.2-0.8,3.5-3.3,4.1-4.9c0.3-0.8,1.9-7.2,1.9-7.2
			l-0.7,6.8c0,0,1.9,1.5,2.8,2c1.8,1,5.6,2.6,7.5,3.4c0.9,0.4,5.6,1.6,6.2,1.8c0.6,0.2,2.4,1.2,2.4,1.2l1.4,2l2.2,1.3l3.1,1.1
			l1.5,0.2l2.1,0.1l0.5,0.7l1.3,0.7l0.7,0.4l1.2,0.9l0.9,0.7c0,0,0.4,0.6,0.6,0.8c0.2,0.2,0.7,0.5,0.9,0.6c0.2,0.1,0.8,0.2,1,0.2
			c0.2-0.1,0.7-0.3,0.7-0.6c0.1-0.6-1.3-1.8-1.3-1.8l0.8,0.5c0,0,0.9,0.9,1.2,1.2c0.2,0.2,0.6,0.8,0.9,0.9c0.3,0.1,0.8,0,1.1-0.1
			c0.2-0.1,0.4-0.6,0.4-0.8c0-0.3-0.4-0.6-0.6-0.8c-0.3-0.3-1-1.4-1-1.4l-1.2-1.7l1.6,1.1c0,0,0.8,1.3,1.1,1.6
			c0.2,0.2,0.8,0.5,1.1,0.6c0.2,0.1,0.7,0.2,0.9,0.1c0.2-0.1,0.6-0.3,0.7-0.5c0-0.2-0.4-0.8-0.5-1c-0.2-0.4-0.8-1.2-0.8-1.2l-1-1.5
			c0,0,0.7,0.2,0.9,0.1c0.2,0,0.7-0.1,0.9-0.3c0.1-0.2,0.2-0.6,0.1-0.8c-0.1-0.5-0.9-1.4-1.3-1.8c-0.6-0.7-2-2.1-2.7-2.7
			c-0.4-0.3-1.2-0.9-1.6-1.1c-0.5-0.3-1.9-1-1.9-1s0.2-0.8,0.2-1.1c0-0.1-0.2-0.3-0.3-0.4c-0.1-0.1-0.4-0.1-0.6-0.1
			c-0.4,0-1.2,0.3-1.6,0.3c-0.3,0-0.9-0.1-1.2-0.2c-0.3-0.1-1.1-0.1-1.4-0.2c-0.4-0.1-1.2-0.4-1.6-0.5c-0.4-0.1-3.4-0.9-3.4-0.9
			l-1.5-0.2l-1.3-1l-2.1-1.5c0,0-1.4-0.9-1.8-1.2c-1.1-0.8-3.2-2.4-4.3-3.2c-1.3-1-4-2.8-5.2-3.9c-0.9-0.8-3.5-3.6-3.5-3.6l0.2-1.6
			c0,0-12.8-5.6-11.9-5.5c1.6,0.2,19,7.8,26.5,6.8c0.9-0.1,1.7,0.1,2.6,0.1c4,0,8-4.2,8.8-4.6c1.1-0.6,3.4-1.8,4.5-2.4
			c1.5-0.9,4.4-2.6,5.7-3.6c1.5-1.2,5.7-4.1,7-5.5c1-1.1,4.1-4.3,4.1-4.3l4.6-4.3l3.8-4l1.1-0.9l0.7-1l1.4-0.8c0,0,0.3,0.6,0.5,0.7
			c0.2,0.2,0.9,0.2,1.1,0.2c0.7,0,2.2-0.1,2.8-0.4c0.3-0.1,0.8-0.4,0.9-0.7c0.3-0.5,0.1-2.3,0.1-2.3s0.6-0.5,0.8-0.6
			c0.3-0.2,0.9-0.7,1.2-0.9c0.3-0.3,0.8-0.9,1-1.3c0.1-0.3,0.2-0.8,0.2-1.1c0-0.2-0.5-0.7-0.5-0.7s0.7-0.8,0.9-1.1
			c0.1-0.3,0.2-0.9,0.2-1.2c0-0.3-0.2-1-0.2-1l0.6-1c0,0,0.4-1,0.5-1.4c0-0.3-0.1-0.8-0.2-1c-0.1-0.2-0.3-0.5-0.5-0.7
			c-0.2-0.2-0.8-0.5-0.8-0.5s1.7-1.1,2.3-1.4c0.5-0.3,3.1-1.9,4.2-4.6C203.6,27.5,205.1,22.8,203,16.4L203,16.4z"/>
		<path class="st1" d="M116.4,118c-5.3,0-19.1-2.1-21.7-3.1c-5.7-2.2-20.8-8.5-21.2-9.4l-0.1-0.1l0.1-0.2c0.4-0.9,1.9-4.4,2.3-5.3
			c-0.5-0.5-1.5-1.7-1.6-2.5c-0.2-0.9,0.2-2.4,1.2-4.6l0.1-0.2l0.2-0.1c0.4-0.1,1,0.2,3.2,1.5c1.8,1.1,4.4,2.6,7.1,3.8
			c4.9,2.1,9.7,3.4,11.9,3.7c-0.3-0.1-0.7-0.3-1.1-0.4c-2.9-1.2-7.6-3.1-11.5-5.5c-4.9-3.1-7.8-5.3-7.9-5.3l-0.2-0.2l0.1-0.3
			c0.3-1,1.9-6.2,2.3-6.8c0.2-0.4,0.7-0.7,1.2-1c0.4-0.2,0.8-0.5,0.9-0.7c1-1.4,1.9-4.5,2.6-7c0.3-1.1,0.6-2.1,0.9-2.8l0.4-1
			c0.4-1.1,0.9-2.5,1.1-3.3c0.1-0.3,0.2-0.6,0.3-1c0.1-0.6,0.3-1.2,0.4-1.6c0.3-0.9,1.1-2.2,1.7-3.3c0.3-0.6,0.6-1.1,0.9-1.5
			c0.4-0.8,1-1.9,1.5-3.1c0.9-1.8,1.8-3.7,2.5-4.9c0.9-1.6,2.6-4.5,3.5-5.9c0.9-1.2,2.7-3.3,3.8-4.5c0.4-0.4,1-1.1,1.6-1.7
			c0.7-0.7,1.3-1.4,1.8-1.8c0.2-0.3,0.5-0.7,0.9-1.1c0.5-0.7,1.1-1.4,1.5-1.8c0.5-0.5,1.6-1.4,2.3-1.7c0.6-0.3,2.3-0.6,2.5-0.6
			l0.4-0.1l0,0.4c0,0,0.2,1.7,3.2,3.6c0.8,0.5,2.3,1.2,3.8,1.9c-1.7-1-3.3-1.9-4-2.5c-0.9-0.7-1.3-2.4-1.3-2.6l0-0.2l2.7-3.5
			c0.1-0.5,0.3-1.5,0.3-1.8c0-0.1-0.1-0.3-0.1-0.4c0-0.2-0.1-0.4-0.1-0.5c0-0.3,0-0.8,0-1.2c0-0.2,0-0.4,0-0.6l0-0.3
			c0-0.4,0-1.1,0-1.4c0-0.2-0.1-0.4-0.1-0.7c-0.1-0.4-0.2-0.8-0.2-1c0-0.4,0.1-1.2,0.2-1.6c0.1-0.4,0.4-1.5,0.8-2
			c0.1-0.1,0.7-0.9,1.2-0.9c0,0,0,0,0,0c0.2,0,0.4,0.1,0.6,0.1c-0.1-0.3-0.2-0.5-0.1-0.6c0.1-0.3,0.2-1.1,0.3-2
			c0.2-1.8,0.4-3,0.5-3.5l0.1-0.3c0.3-0.9,0.6-2.2,1-2.9c0.2-0.5,0.9-1.4,1.2-1.8c0.2-0.2,0.6-0.6,0.9-0.8c0.2-0.1,0.2-0.7,0.2-1
			l-0.2-1.1l0.8,0.7c0.2,0.1,0.3,0.3,0.5,0.4l-1.3-2.3l1.6,1.3L123.2,0l2.8,3.9c0.1-0.2,0.1-0.3,0.1-0.4c0-0.2,0-1.6-0.1-2.4l0-1
			l0.7,0.7c0.1,0.1,0.7,0.7,0.9,1.1c0,0,0.1,0.1,0.1,0.5c0.1-0.2,0.1-0.3,0.2-0.4c0.1-0.1,0.1-0.6,0.2-0.9l0.1-0.9l0.5,0.7
			c0.1,0.1,0.5,0.7,0.6,0.9c0.1,0.1,0.1,0.3,0.2,0.5c0.4,0.1,1,0.1,1.2,0c1-0.4,1.9,0,2.6,0.3c0.3,0.1,0.6,0.2,0.8,0.3
			c0.3,0,0.9,0,1.4,0c1,0,2.1-0.1,2.7,0.2c0.9,0.3,2.5,1.2,3.3,1.7c0.7,0.5,2.3,1.6,3,2.4c0.5,0.6,1.2,2,1.6,2.8l0.1,0.1
			c0.4,0.7,1.5,3,1.9,4.2c0.2,0.9,0.4,2.5,0.4,3.4c0,0.3,0.1,0.7,0.2,1.1c0.2,0.8,0.4,1.8,0.3,2.7c-0.1,1-0.4,1.6-0.9,1.8
			c-0.4,0.2-0.8,0.1-0.8,0.1c-0.2-0.1-3.7-1.3-5.7-2.3c1.6,1,3.3,1.7,4.3,2c0.8,0.3,1,0.4,1.1,0.6l0.1,0.1l-0.1,0.2
			c-0.1,0.3-1.9,3.1-2.3,3.6l-0.7,0.9c0,0.4-0.2,1.8-0.3,2.3c-0.2,0.7-0.6,2-0.9,2.6c-0.3,0.7-1,1.5-1.7,2.4
			c-0.5,0.7-1.1,1.3-1.3,1.8c-0.2,0.4-0.4,0.7-0.6,1.1c-0.3,0.7-0.7,1.3-1.1,2c-0.5,0.7-1.6,2.3-2.4,3c-0.5,0.4-1.5,1.1-2.2,1.3
			c-0.5,0.2-1.5,0.3-2,0.4c-0.4,0-1-0.1-1.3-0.2l-1.6,2.5c0,0.5,0.2,2.3,0.2,2.9c0,0.3,0,0.6,0,1c0,0.8,0.1,1.8,0.2,2.3
			c0.2,0.7,0.8,2.2,1.3,2.8c0.4,0.5,1.5,1.3,2.1,1.6c0.5,0.3,2.2,0.8,2.8,1l0.4,0.1l-2.1,5.2l2.1-3.6l7.3,3.1l0.9,0.1
			c0.4-0.2,1.9-1.1,2.4-1.3l0.5-0.3c1-0.5,2.3-1.3,3-1.6c0.8-0.4,2.5-1.1,3.4-1.5c0.5-0.2,1.1-0.3,1.8-0.5c0.7-0.2,1.5-0.4,2-0.6
			c1.3-0.5,3.8-1.8,5.1-2.5c1.5-0.8,6.2-2.8,6.7-3l4.6-3.7l4.5-4.1l2.1-2.1l1.7-3.2l1.3-2.9l0.7-1.1c-0.7-0.4-2.3-1.6-3.1-3.2
			c-0.3-0.7-0.6-2.3-0.7-2.9c-0.1-0.7-0.2-2.1-0.2-2.9l0-0.2c0.1-4.8,1.4-7.6,2.5-9.1l0.1-0.1c1.4-2.1,5.3-7,10.7-7.2
			c6-0.2,9.3,2.9,10.3,6l0,0c2,6.1,0.8,10.9-0.2,13.1c-0.7,1.7-2.1,3.3-4.2,4.7l-0.1,0.1c-0.4,0.2-1.2,0.8-1.8,1.1
			c0.1,0.1,0.2,0.2,0.3,0.2c0.2,0.2,0.4,0.5,0.5,0.8c0.1,0.3,0.2,0.8,0.2,1.2c0,0.4-0.4,1.3-0.5,1.5l-0.5,0.9
			c0.1,0.3,0.2,0.7,0.2,0.9c0,0.3,0,1-0.2,1.4c-0.1,0.3-0.5,0.7-0.7,1c0.2,0.2,0.3,0.4,0.3,0.6c0.1,0.4-0.1,1.1-0.2,1.3
			c-0.2,0.4-0.8,1.1-1.1,1.5c-0.2,0.2-0.6,0.5-0.9,0.7l-0.9,0.8c0,0.5,0.1,1.8-0.2,2.3c-0.2,0.4-0.8,0.8-1.1,0.9
			c-0.7,0.3-2.2,0.4-3,0.4l-0.1,0c-0.5,0-0.9,0-1.2-0.2c-0.1-0.1-0.3-0.3-0.4-0.5l-1,0.5l-0.7,0.9l-1.1,0.9l-3.8,4l-4.7,4.3
			c0,0-3.1,3.2-4.1,4.3c-0.9,1-3.2,2.7-5.1,4.1c-0.8,0.6-1.5,1.1-2,1.5c-1.3,1-3.9,2.6-5.5,3.5l-0.3,0.2c-0.6,0.4-1.7,0.9-2.6,1.4
			c-0.7,0.4-1.4,0.7-1.9,1c-0.1,0.1-0.4,0.3-0.8,0.6c-1.6,1.3-4.9,4-8.1,4c-0.4,0-0.8,0-1.1-0.1c-0.5-0.1-1-0.1-1.4,0
			c-5,0.7-14.3-2.4-20.6-4.7c2.1,0.9,4.3,1.9,6.1,2.7l0.3,0.1l-0.2,1.7c0.5,0.6,2.6,2.7,3.4,3.4c0.8,0.7,2.3,1.8,3.6,2.7
			c0.6,0.4,1.2,0.8,1.6,1.1c0.4,0.3,0.8,0.6,1.3,1c1,0.8,2.2,1.7,2.9,2.2c0.4,0.3,1.8,1.2,1.8,1.2l3.4,2.4l1.4,0.2
			c0.3,0.1,3.1,0.7,3.5,0.9c0.2,0.1,0.5,0.2,0.8,0.3c0.3,0.1,0.6,0.2,0.8,0.3c0.2,0.1,0.5,0.1,0.8,0.1c0.2,0,0.4,0,0.5,0.1l0.2,0
			c0.3,0.1,0.7,0.1,0.9,0.1c0.2,0,0.4-0.1,0.7-0.2c0.3-0.1,0.6-0.2,0.9-0.2c0.2,0,0.6,0,0.8,0.1c0.2,0.1,0.4,0.4,0.4,0.6
			c0.1,0.2,0,0.7-0.1,1c0.4,0.2,1.3,0.7,1.6,0.9c0.4,0.2,1.2,0.8,1.7,1.1c0.8,0.6,2.2,2,2.8,2.8l0.2,0.2c0.5,0.6,1,1.2,1.2,1.7
			c0.1,0.3,0,0.9-0.2,1.2c-0.3,0.4-1.1,0.5-1.1,0.5c0,0-0.1,0-0.2,0l0.5,0.7c0,0,0.6,0.9,0.8,1.3l0.1,0.1c0.3,0.5,0.5,0.8,0.5,1.1
			c-0.1,0.5-0.7,0.8-0.9,0.8c-0.4,0.1-1.1-0.1-1.2-0.1c-0.2-0.1-0.6-0.3-0.9-0.5c0.2,0.2,0.3,0.4,0.3,0.7c0,0.4-0.3,0.9-0.5,1.1
			c-0.3,0.3-1.1,0.3-1.4,0.2c-0.3-0.1-0.6-0.4-0.8-0.7c-0.1-0.1-0.2-0.2-0.2-0.3c0,0,0,0,0,0c-0.1,0.4-0.7,0.7-0.9,0.8
			c-0.4,0.1-1.1-0.1-1.3-0.2c-0.3-0.1-0.8-0.5-1.1-0.7c-0.2-0.2-0.5-0.7-0.6-0.8l-0.8-0.7l-1.1-0.9l-0.7-0.4l-1.4-0.8l-0.4-0.6
			l-1.9,0l-1.6-0.2l-3.2-1.1l-2.3-1.5l-1.4-2c-0.5-0.3-1.8-0.9-2.2-1.1c-0.2-0.1-0.6-0.2-1.2-0.4c-1.7-0.5-4.3-1.2-5-1.5l-0.5-0.2
			c-2-0.9-5.4-2.3-7.1-3.3c-0.9-0.5-2.8-1.9-2.8-2l-0.2-0.1l0.2-2.3c-0.3,1.3-0.6,2.4-0.7,2.7c-0.3,1-1.6,2.2-2.6,3.2
			c-0.6,0.6-1.4,1.4-1.5,1.6c-0.2,0.7-0.5,1.5-0.8,2.5c-0.6,1.7-1.2,3.6-1.2,4.7c0,1.7-0.2,2.7-0.4,3.6c-0.3,1.7-0.5,2.3,2.4,6.8
			c0.1,0.2,0.1,0.4,0,0.5C118.3,117.9,117.5,118,116.4,118z M74.3,105.3c1.5,1,13.2,6.2,20.6,9c4.3,1.6,20.2,3.3,22.7,3
			c-2.8-4.4-2.6-5.2-2.3-7c0.2-0.8,0.3-1.8,0.4-3.4c0-1.3,0.7-3.2,1.3-5c0.3-0.9,0.6-1.8,0.7-2.4c0.1-0.4,0.7-1,1.7-2
			c1-0.9,2.2-2.1,2.5-2.9c0.3-0.8,1.9-7.2,1.9-7.2l0.7,0.1l-0.6,6.6c0.5,0.4,1.9,1.4,2.6,1.8c1.6,1,5,2.4,7,3.2l0.5,0.2
			c0.7,0.3,3.3,1,4.9,1.5c0.6,0.2,1.1,0.3,1.3,0.4c0.7,0.2,2.4,1.2,2.4,1.2l0.1,0.1l1.4,2l2.1,1.3l3.1,1.1l1.5,0.2l2.2,0.1l0.6,0.8
			l2,1.1l2.1,1.8c0.2,0.3,0.4,0.7,0.5,0.8c0.2,0.2,0.6,0.5,0.8,0.5c0.3,0.1,0.7,0.2,0.8,0.1c0.1,0,0.4-0.2,0.4-0.3
			c0-0.2-0.6-0.9-1.2-1.5l0.5-0.6l0.8,0.5c0.1,0,0.9,1,1.2,1.2c0.1,0.1,0.2,0.2,0.3,0.3c0.1,0.1,0.4,0.4,0.5,0.5
			c0.1,0.1,0.6,0,0.7-0.1c0.1-0.1,0.2-0.4,0.2-0.5c0-0.1-0.3-0.3-0.4-0.5l-0.1-0.2c-0.3-0.3-1-1.4-1-1.4l-2.4-3.4l3.4,2.4
			c0.3,0.5,0.8,1.3,1.1,1.5c0.2,0.2,0.7,0.5,1,0.6c0.3,0.1,0.6,0.2,0.7,0.1c0.1,0,0.4-0.2,0.4-0.3c0,0-0.1-0.2-0.4-0.6l-0.1-0.1
			c-0.2-0.4-0.8-1.2-0.8-1.2l-1.6-2.3l1,0.2c0.3,0.1,0.7,0.1,0.8,0.1c0.2,0,0.5-0.1,0.6-0.2c0-0.1,0.1-0.4,0-0.5
			c-0.1-0.4-0.7-1.1-1-1.4l-0.2-0.2c-0.6-0.7-2-2.1-2.7-2.7c-0.4-0.3-1.1-0.8-1.6-1.1c-0.4-0.3-1.8-1-1.8-1l-0.3-0.1l0.1-0.3
			c0.1-0.4,0.2-0.8,0.1-0.9c0,0-0.1-0.1-0.1-0.2c0,0-0.2,0-0.3,0c-0.2,0-0.4,0.1-0.7,0.2c-0.3,0.1-0.6,0.2-0.9,0.2
			c-0.3,0-0.7-0.1-1-0.1l-0.2,0c-0.1,0-0.3,0-0.4-0.1c-0.4,0-0.8-0.1-1-0.2c-0.2-0.1-0.5-0.2-0.8-0.3c-0.3-0.1-0.6-0.2-0.8-0.3
			c-0.2-0.1-2.2-0.6-3.4-0.8l-1.6-0.3l-3.5-2.4l0,0c0,0-1.4-0.9-1.8-1.2c-0.7-0.5-1.9-1.4-3-2.2c-0.5-0.4-1-0.7-1.3-1
			c-0.4-0.3-1-0.7-1.6-1.1c-1.3-0.9-2.8-2-3.7-2.8c-0.9-0.8-3.4-3.5-3.5-3.6l-0.1-0.1l0.2-1.5c-12-5.3-12-5.4-11.9-5.8l0.1-0.3
			l0.4,0c0.4,0.1,1.5,0.5,3.8,1.3c6,2.2,17.1,6.3,22.6,5.5c0.6-0.1,1.1,0,1.6,0c0.3,0,0.7,0.1,1,0.1c3,0,6.2-2.6,7.7-3.9
			c0.4-0.4,0.7-0.6,0.9-0.7c0.5-0.3,1.2-0.6,1.9-1c1-0.5,2-1.1,2.6-1.4l0.3-0.2c1.6-0.9,4.2-2.4,5.4-3.4c0.5-0.4,1.2-0.9,2-1.5
			c1.8-1.4,4.1-3.1,5-4c1-1.1,4.1-4.3,4.1-4.3l4.7-4.3l3.8-4l1.1-0.9l0.8-1l1.8-0.9l0.2,0.3c0.1,0.3,0.3,0.5,0.4,0.6
			c0.1,0.1,0.6,0.1,0.8,0.1l0.2,0c0.7,0,2-0.1,2.6-0.3c0.2-0.1,0.6-0.4,0.7-0.5c0.1-0.3,0.1-1.3,0.1-2.1l0-0.2l1.3-1
			c0.3-0.2,0.6-0.5,0.8-0.6c0.3-0.3,0.8-0.9,0.9-1.2c0.1-0.2,0.2-0.7,0.1-0.9c0-0.1-0.2-0.3-0.4-0.5l-0.2-0.3l0.2-0.3
			c0.3-0.4,0.7-0.9,0.8-1c0.1-0.2,0.2-0.8,0.1-1c0-0.1-0.1-0.6-0.2-0.9l0-0.2l0.6-1.1c0.2-0.4,0.4-1,0.4-1.2c0-0.2-0.1-0.6-0.1-0.8
			c0-0.1-0.3-0.4-0.4-0.5c-0.1-0.1-0.4-0.3-0.7-0.4l-0.6-0.3l0.5-0.3c0,0,1.7-1.1,2.3-1.4l0.1-0.1c1.9-1.3,3.2-2.7,3.9-4.3
			c0.9-2.2,2.1-6.7,0.1-12.6c-0.9-2.8-3.9-5.7-9.6-5.5c-5,0.2-8.7,4.9-10.1,6.9l-0.1,0.1c-1,1.4-2.2,4.1-2.3,8.7l0,0.2
			c0,0.7,0.1,2.1,0.2,2.8c0.1,0.7,0.4,2.1,0.7,2.7c0.8,1.9,3,3,3.1,3l0.4,0.2l-1.1,1.7l-1.3,2.9l-1.8,3.4l-2.1,2.2l-4.5,4.1
			l-4.8,3.8c-0.1,0-5.2,2.2-6.7,3c-1.3,0.7-3.9,2-5.2,2.5c-0.5,0.2-1.3,0.4-2,0.6c-0.6,0.2-1.3,0.3-1.7,0.5c-0.8,0.3-2.5,1-3.3,1.4
			c-0.7,0.4-2.1,1.1-3,1.6l-0.5,0.3c-0.6,0.3-2.5,1.4-2.5,1.4l-0.1,0.1l-1.3-0.2l-6.7-2.9l-4.6,8l-0.7-0.3l3.9-9.7
			c-0.7-0.2-2.1-0.6-2.6-0.9c-0.7-0.3-1.9-1.2-2.4-1.8c-0.5-0.7-1.2-2.2-1.4-3c-0.2-0.6-0.2-1.6-0.2-2.5c0-0.4,0-0.7,0-1
			c-0.1-0.8-0.2-3-0.2-3l0-0.1l2-3.2l0.3,0.1c0.3,0.1,1,0.2,1.4,0.2c0.4,0,1.4-0.2,1.8-0.3c0.5-0.2,1.5-0.8,1.9-1.2
			c0.6-0.6,1.7-2,2.2-2.8c0.4-0.6,0.7-1.2,1-1.9c0.2-0.4,0.4-0.7,0.6-1.1c0.3-0.5,0.8-1.2,1.4-1.9c0.7-0.8,1.3-1.7,1.6-2.2
			c0.3-0.6,0.7-1.9,0.9-2.5c0.1-0.6,0.3-2.3,0.3-2.3l0-0.1l0.8-1.1c0.7-1,1.7-2.6,2.1-3.2c-0.1-0.1-0.3-0.1-0.5-0.2
			c-1.3-0.5-3.8-1.4-5.7-3c-2.6-2.3-4.8-5-4.8-5l0.6-0.5c0,0,4,3.8,5.4,4.7c1.3,0.9,6.3,2.6,6.4,2.7c0,0,0.1,0,0.2,0
			c0.1-0.1,0.4-0.3,0.5-1.3c0.1-0.8-0.1-1.7-0.3-2.5c-0.1-0.5-0.2-1-0.2-1.3c0-0.8-0.2-2.4-0.4-3.2c-0.3-1.1-1.4-3.3-1.8-4l-0.1-0.1
			c-0.4-0.7-1.1-2.1-1.5-2.6c-0.6-0.7-2-1.7-2.8-2.2c-0.8-0.5-2.4-1.4-3.2-1.7c-0.5-0.2-1.6-0.1-2.5-0.1c-0.6,0-1.1,0-1.5,0
			c-0.3,0-0.7-0.2-1-0.3c-0.7-0.3-1.4-0.5-2.1-0.3c-0.5,0.2-1.6,0-1.8,0l-0.3,0l-0.1-0.3c0-0.2-0.1-0.5-0.2-0.6c0,0,0-0.1-0.1-0.1
			c0,0.1-0.1,0.2-0.1,0.3c-0.1,0.2-0.8,1.7-0.8,1.7L127,5.5l0-1.6c0-0.7-0.1-1.5-0.1-1.7c0,0,0-0.1-0.1-0.1c0,0.6,0,1.3,0,1.5
			c0,0.4-0.4,1.2-0.4,1.3l-0.2,0.4l0.4,0.8l-1.2-1l0,0.1c-0.1,0.1-0.3,0.5-0.6,0.5c-0.1,0-0.2,0-0.6-0.3c0,0.4-0.2,0.8-0.6,1
			c-0.1,0.1-0.4,0.3-0.7,0.6c-0.3,0.3-0.9,1.2-1.1,1.6c-0.3,0.6-0.7,2-0.9,2.8l-0.1,0.3c-0.1,0.4-0.3,2.1-0.5,3.3
			c-0.1,0.9-0.2,1.7-0.3,2c0,0,0.2,0.4,0.4,0.7c0.2,0.5,0.5,1,0.6,1.4c0.4,1.6,0.3,3,0.3,3.1l-0.7,0c-0.1-1.4-0.7-4.2-1.8-4.2
			c-0.1,0-0.4,0.3-0.6,0.6c-0.2,0.3-0.6,1.2-0.7,1.7c-0.1,0.3-0.2,1-0.2,1.3c0,0.2,0.1,0.6,0.2,0.9c0.1,0.3,0.1,0.6,0.2,0.8
			c0,0.4,0,1,0,1.5l0,0.3c0,0.2,0,0.4,0,0.6c0,0.4,0,0.9,0,1.1c0,0.1,0,0.2,0.1,0.4c0.1,0.2,0.1,0.4,0.1,0.6c0,0.5-0.3,1.9-0.3,2.1
			l-0.1,0.2l-2.6,3.3c0.1,0.6,0.5,1.6,1,2c1.7,1.3,8.9,5.3,9,5.3l-0.3,0.7c-0.3-0.1-7.2-2.8-9.4-4.1c-2.5-1.6-3.3-3.1-3.5-3.8
			c-0.6,0.1-1.6,0.3-2,0.5c-0.6,0.3-1.6,1.1-2.1,1.5c-0.4,0.4-0.9,1.1-1.4,1.7c-0.3,0.4-0.7,0.9-0.9,1.1c-0.4,0.5-1.1,1.2-1.8,1.9
			c-0.6,0.6-1.2,1.3-1.6,1.7c-0.8,0.9-2.9,3.2-3.7,4.5c-0.9,1.3-2.6,4.2-3.5,5.8c-0.6,1.2-1.6,3.1-2.5,4.9c-0.6,1.2-1.1,2.3-1.5,3.1
			c-0.2,0.4-0.5,1-0.9,1.6c-0.6,1.1-1.4,2.4-1.7,3.2c-0.1,0.3-0.3,1-0.4,1.5c-0.1,0.4-0.2,0.8-0.3,1.1c-0.2,0.8-0.7,2.2-1.1,3.3
			l-0.4,1c-0.3,0.7-0.5,1.7-0.8,2.8c-0.8,2.6-1.6,5.6-2.7,7.2c-0.2,0.3-0.7,0.6-1.1,0.9c-0.4,0.3-0.8,0.5-1,0.8
			c-0.2,0.4-1.4,4-2.2,6.4c0.8,0.6,3.5,2.5,7.6,5.1c3.7,2.4,8.5,4.3,11.3,5.5c2.2,0.9,2.5,1,2.6,1.3l0.1,0.2l-0.1,0.2
			c-0.6,1.3-9.4-1.5-14-3.5c-2.7-1.2-5.3-2.7-7.1-3.8c-1-0.6-2.1-1.2-2.5-1.4c-1,2.4-1.1,3.5-1.1,3.9c0.1,0.4,1,1.6,1.6,2.2l0.2,0.2
			l-0.1,0.2C76.6,100,74.9,104,74.3,105.3z"/>
	</g>
	<g>
		<path class="st1" d="M116.4,117.9c-5.1,0-18.6-1.9-21.7-3.1c-6.2-2.3-20.7-8.5-21.1-9.4l0-0.1l0-0.1c0.4-0.9,2-4.6,2.4-5.4
			c-0.4-0.4-1.5-1.7-1.7-2.4c-0.1-0.8,0.2-2.3,1.2-4.5c0-0.1,0.1-0.2,0.2-0.2c0.4-0.1,1.1,0.3,3.1,1.5c1.9,1.1,4.4,2.6,7.1,3.8
			c5.6,2.5,11.1,3.8,12.8,3.8c-0.4-0.2-1.1-0.5-1.8-0.8c-2.9-1.1-7.6-3.1-11.4-5.5c-4.9-3.1-7.8-5.3-7.9-5.3l-0.1-0.1l0.1-0.2
			c0.2-0.6,1.9-6.2,2.3-6.8c0.2-0.3,0.7-0.6,1.2-1c0.4-0.3,0.8-0.5,1-0.8c1-1.4,1.9-4.5,2.6-7c0.3-1.1,0.6-2.1,0.9-2.8l0.4-1
			c0.4-1.1,0.9-2.5,1.1-3.3c0.1-0.3,0.2-0.6,0.3-1c0.1-0.6,0.3-1.2,0.4-1.6c0.3-0.9,1.1-2.1,1.7-3.3c0.3-0.6,0.6-1.1,0.9-1.6
			c0.4-0.8,1-1.9,1.5-3.1c0.9-1.8,1.8-3.7,2.5-4.9c0.9-1.6,2.6-4.5,3.5-5.9c0.9-1.2,2.9-3.6,3.8-4.5c0.4-0.4,1-1.1,1.6-1.7
			c0.7-0.7,1.3-1.4,1.8-1.8c0.2-0.3,0.6-0.7,0.9-1.1c0.5-0.7,1.1-1.4,1.5-1.8c0.5-0.5,1.6-1.4,2.2-1.7c0.6-0.3,2.4-0.6,2.5-0.6
			l0.3,0l0,0.3c0,0,0.2,1.8,3.3,3.7c1.1,0.7,3.6,1.8,5.7,2.7c-2.2-1.2-4.8-2.7-5.8-3.5c-0.9-0.7-1.2-2.5-1.3-2.6l0-0.1l2.7-3.4
			c0.1-0.4,0.3-1.5,0.3-1.9c0-0.1-0.1-0.3-0.1-0.5c0-0.2-0.1-0.3-0.1-0.5c0-0.3,0-0.8,0-1.2c0-0.2,0-0.4,0-0.6l0-0.3
			c0-0.5,0-1.1,0-1.4c0-0.2-0.1-0.4-0.2-0.7c-0.1-0.4-0.2-0.7-0.2-1c0-0.4,0.1-1.2,0.2-1.5c0.1-0.5,0.5-1.5,0.8-1.9
			c0.1-0.1,0.6-0.8,1.1-0.8c0,0,0,0,0,0c0.4,0,0.7,0.1,0.9,0.4c-0.3-0.5-0.4-0.8-0.3-0.9c0.1-0.3,0.2-1.1,0.3-2
			c0.2-1.4,0.4-3,0.5-3.4l0.1-0.3c0.3-0.9,0.6-2.2,1-2.9c0.2-0.5,0.8-1.4,1.2-1.7c0.2-0.2,0.6-0.6,0.9-0.8c0.4-0.2,0.3-1,0.2-1.2
			l-0.2-0.7l0.6,0.5c0.3,0.3,0.7,0.5,0.8,0.6c0,0,0,0,0-0.1l-1.2-2.1L125,4l-1.3-3l2.2,3.2c0.1-0.3,0.2-0.5,0.2-0.7
			c0-0.3,0-1.8-0.1-2.4l0-0.7l0.5,0.5c0.1,0.1,0.7,0.7,0.9,1c0.1,0.1,0.1,0.5,0.1,0.9c0.2-0.3,0.3-0.7,0.4-0.8
			c0.1-0.1,0.2-0.6,0.2-0.9l0.1-0.6l0.4,0.5c0.1,0.1,0.5,0.6,0.6,0.8c0.1,0.1,0.1,0.4,0.2,0.6c0.4,0.1,1.1,0.1,1.3,0
			c1-0.4,1.8,0,2.5,0.3c0.3,0.1,0.6,0.2,0.9,0.3c0.4,0,0.9,0,1.4,0c1,0,2-0.1,2.7,0.2c0.9,0.3,2.5,1.2,3.3,1.7
			c0.9,0.6,2.4,1.6,3,2.4c0.5,0.6,1.2,2,1.6,2.8l0.1,0.1c0.4,0.7,1.5,3,1.8,4.1c0.2,0.8,0.4,2.5,0.4,3.3c0,0.3,0.1,0.7,0.2,1.2
			c0.2,0.8,0.4,1.8,0.3,2.7c-0.1,0.9-0.4,1.5-0.8,1.7c-0.4,0.2-0.7,0.1-0.7,0.1c-0.2-0.1-5.1-1.8-6.5-2.7c-0.4-0.2-0.9-0.6-1.5-1.1
			c0.3,0.3,0.7,0.6,1,0.9c1.8,1.5,4.2,2.4,5.5,2.9c0.8,0.3,1,0.4,1,0.5l0,0.1l0,0.1c-0.1,0.3-2.1,3.3-2.3,3.6l-0.7,1
			c0,0.3-0.2,1.8-0.3,2.4c-0.2,0.7-0.6,2-0.9,2.6c-0.3,0.6-1,1.5-1.7,2.4c-0.5,0.7-1.1,1.3-1.3,1.8c-0.2,0.4-0.4,0.7-0.6,1.1
			c-0.3,0.6-0.7,1.3-1.1,2c-0.5,0.7-1.6,2.3-2.3,3c-0.5,0.4-1.5,1.1-2.1,1.3c-0.5,0.2-1.5,0.3-2,0.3c-0.4,0-1.1-0.1-1.4-0.2
			l-1.7,2.7c0,0.4,0.2,2.3,0.2,3c0,0.3,0,0.6,0,1c0,0.8,0.1,1.8,0.2,2.3c0.2,0.8,0.9,2.2,1.3,2.8c0.4,0.5,1.6,1.3,2.2,1.6
			c0.7,0.3,2.8,1,2.9,1l0.3,0.1l-2.8,6.8l2.9-5.2l7.2,3.1l1,0.1c0.4-0.2,1.9-1.1,2.5-1.4l0.5-0.3c1-0.5,2.3-1.2,3-1.6
			c0.8-0.4,2.5-1.1,3.4-1.5c0.4-0.2,1.1-0.3,1.8-0.5c0.7-0.2,1.5-0.4,2-0.6c1.3-0.5,3.8-1.8,5.1-2.5c1.5-0.8,6.2-2.8,6.7-3l4.7-3.7
			l4.5-4.1l2.1-2.1L182,40l1.3-2.9l0.7-1.2c-0.6-0.4-2.3-1.5-3.1-3.2c-0.3-0.7-0.6-2.2-0.7-2.9c-0.1-0.7-0.2-2.1-0.2-2.9l0-0.2
			c0.1-4.8,1.4-7.5,2.4-9l0.1-0.1c1.4-2.1,5.3-6.9,10.6-7.1c6-0.2,9.2,2.9,10.2,5.9l0,0c2,6.1,0.8,10.8-0.1,13
			c-0.7,1.7-2.1,3.3-4.1,4.6l-0.1,0.1c-0.4,0.3-1.4,0.9-1.9,1.2c0.2,0.1,0.4,0.2,0.5,0.3c0.2,0.2,0.4,0.5,0.5,0.7
			c0.1,0.3,0.2,0.8,0.2,1.1c0,0.4-0.4,1.3-0.5,1.4l-0.5,0.9c0.1,0.2,0.2,0.7,0.2,1c0,0.3,0,1-0.2,1.3c-0.1,0.3-0.5,0.8-0.8,1
			c0.2,0.2,0.3,0.4,0.4,0.6c0.1,0.3,0,1-0.2,1.2c-0.2,0.4-0.7,1.1-1.1,1.4c-0.2,0.2-0.5,0.5-0.8,0.7c-0.1,0.1-0.2,0.2-0.3,0.3
			l-0.7,0.5c0,0.5,0.1,1.8-0.1,2.3c-0.2,0.3-0.8,0.7-1,0.8c-0.7,0.3-2.2,0.4-2.9,0.4l-0.1,0c-0.4,0-0.9,0-1.1-0.2
			c-0.2-0.1-0.3-0.4-0.5-0.6l-1.2,0.6l-0.7,0.9l-1.1,0.9l-3.8,4l-4.7,4.3c0,0-3.1,3.2-4.1,4.3c-0.9,1-3.2,2.7-5.1,4.1
			c-0.8,0.6-1.5,1.1-2,1.5c-1.3,1-3.9,2.6-5.5,3.5l-0.3,0.2c-0.6,0.4-1.7,0.9-2.6,1.4c-0.7,0.4-1.4,0.7-1.9,1
			c-0.1,0.1-0.4,0.3-0.8,0.6c-1.6,1.3-4.8,4-8.1,4c-0.4,0-0.7,0-1.1-0.1c-0.5-0.1-1-0.1-1.5,0c-5.7,0.8-16.9-3.4-22.9-5.6
			c-0.2-0.1-0.4-0.2-0.6-0.2c2.5,1.2,6.2,2.8,9,4l0.2,0.1l-0.2,1.7c0.4,0.5,2.6,2.7,3.4,3.5c0.8,0.7,2.3,1.8,3.6,2.7
			c0.6,0.4,1.2,0.8,1.6,1.1c0.4,0.3,0.8,0.6,1.3,1c1,0.8,2.2,1.7,2.9,2.2c0.4,0.3,1.8,1.2,1.8,1.2l3.4,2.4l1.4,0.2
			c0.3,0.1,3.1,0.7,3.5,0.9c0.2,0.1,0.5,0.2,0.8,0.3c0.3,0.1,0.6,0.2,0.8,0.3c0.2,0.1,0.6,0.1,0.9,0.1c0.2,0,0.4,0,0.5,0.1l0.2,0
			c0.3,0.1,0.7,0.1,0.9,0.1c0.2,0,0.5-0.1,0.7-0.2c0.3-0.1,0.6-0.2,0.8-0.2c0.1,0,0.5,0,0.7,0.1c0.2,0.1,0.3,0.4,0.4,0.5
			c0.1,0.2,0,0.7-0.1,1c0.4,0.2,1.3,0.7,1.7,0.9c0.4,0.2,1.2,0.8,1.6,1.1c0.8,0.6,2.2,2,2.8,2.8l0.2,0.2c0.4,0.5,1,1.2,1.1,1.7
			c0.1,0.3,0,0.8-0.2,1.1c-0.3,0.3-1,0.4-1,0.4c-0.1,0-0.2,0-0.4,0l0.7,1c0,0,0.6,0.9,0.8,1.3l0.1,0.1c0.3,0.5,0.5,0.8,0.4,1
			c-0.1,0.4-0.6,0.7-0.9,0.7c-0.4,0.1-1.1-0.1-1.1-0.1c-0.3-0.1-0.9-0.4-1.2-0.7c-0.3-0.3-1-1.4-1.2-1.6l-0.4-0.3l0.4,0.6
			c0,0,0.7,1.1,1,1.4c0,0,0.1,0.1,0.1,0.1c0.3,0.3,0.5,0.6,0.5,0.8c0,0.3-0.3,0.8-0.5,1c-0.3,0.2-1,0.3-1.3,0.2
			c-0.3-0.1-0.5-0.4-0.8-0.7c-0.1-0.1-0.2-0.2-0.2-0.3c-0.1,0-0.1-0.1-0.2-0.2c0,0,0,0.1,0,0.1c-0.1,0.4-0.6,0.7-0.9,0.8
			c-0.3,0.1-0.9-0.1-1.2-0.2c-0.3-0.1-0.8-0.5-1-0.7c-0.2-0.2-0.5-0.7-0.6-0.8l-0.8-0.7l-1.2-0.9l-0.7-0.4l-1.4-0.7l-0.4-0.6l-2,0
			l-1.6-0.2l-3.2-1.1l-2.3-1.4l-1.4-2c-0.3-0.2-1.7-0.9-2.3-1.1c-0.2-0.1-0.6-0.2-1.2-0.4c-1.7-0.5-4.3-1.2-5-1.5l-0.5-0.2
			c-2-0.9-5.4-2.3-7-3.3c-0.9-0.5-2.7-1.9-2.8-2l-0.1-0.1l0.4-3.8c-0.5,1.8-1,3.7-1.1,4.2c-0.3,1-1.5,2.1-2.6,3.2
			c-0.7,0.7-1.4,1.4-1.5,1.7c-0.2,0.7-0.5,1.5-0.8,2.5c-0.6,1.7-1.2,3.6-1.2,4.8c0,1.7-0.2,2.7-0.4,3.5c-0.3,1.8-0.5,2.4,2.4,6.9
			c0.1,0.1,0.1,0.3,0,0.4C118.2,117.8,117.5,117.9,116.4,117.9z M74.1,105.3c1.2,0.9,13.2,6.2,20.7,9c4.1,1.5,21.1,3.5,23,3
			c-2.9-4.5-2.7-5.2-2.4-7.1c0.2-0.8,0.4-1.8,0.4-3.4c0-1.3,0.7-3.2,1.2-4.9c0.3-0.9,0.6-1.8,0.7-2.4c0.1-0.4,0.7-1,1.6-1.9
			c1-1,2.2-2.1,2.5-3c0.3-0.8,1.9-7.2,1.9-7.2l0.5,0.1l-0.6,6.7c0.4,0.3,1.9,1.5,2.7,1.9c1.6,1,5,2.4,7,3.2l0.5,0.2
			c0.7,0.3,3.3,1,4.9,1.5c0.6,0.2,1.1,0.3,1.3,0.4c0.6,0.2,2.3,1.1,2.4,1.2l0.1,0.1l1.4,2l2.1,1.3l3.1,1.1l1.5,0.2l2.2,0.1l0.5,0.8
			l1.3,0.6l0.7,0.4l1.2,1l0.9,0.8c0.1,0.2,0.4,0.7,0.5,0.8c0.2,0.2,0.6,0.5,0.9,0.6c0.3,0.1,0.7,0.2,0.9,0.1c0.2,0,0.5-0.3,0.5-0.4
			c0-0.3-0.6-1-1.2-1.6l0.3-0.4l0.8,0.5c0,0,0.9,0.9,1.2,1.2c0.1,0.1,0.2,0.2,0.3,0.3c0.2,0.2,0.4,0.5,0.5,0.5
			c0.2,0.1,0.7,0,0.8-0.1c0.1-0.1,0.3-0.5,0.3-0.6c0-0.1-0.3-0.4-0.4-0.5c-0.1-0.1-0.1-0.1-0.1-0.1c-0.3-0.3-1-1.4-1-1.4l-2-2.8
			l2.8,2c0.2,0.3,0.8,1.3,1.1,1.6c0.2,0.2,0.7,0.5,1,0.6c0.3,0.1,0.6,0.2,0.8,0.1c0.2,0,0.5-0.2,0.5-0.3c0-0.1-0.1-0.3-0.4-0.7
			l-0.1-0.1c-0.2-0.3-0.8-1.2-0.8-1.2l-1.4-2l0.6,0.2c0.3,0.1,0.7,0.1,0.8,0.1c0.3,0,0.6-0.2,0.7-0.2c0.1-0.1,0.1-0.5,0.1-0.6
			c-0.1-0.4-0.7-1.1-1-1.5l-0.2-0.2c-0.6-0.7-2-2.1-2.7-2.7c-0.4-0.3-1.1-0.8-1.6-1.1c-0.4-0.3-1.8-1-1.9-1l-0.2-0.1l0-0.2
			c0.1-0.4,0.2-0.9,0.2-1c0-0.1-0.1-0.2-0.2-0.2c0,0-0.2,0-0.4,0c-0.2,0-0.5,0.1-0.7,0.2c-0.3,0.1-0.6,0.2-0.8,0.2
			c-0.3,0-0.7-0.1-1-0.1l-0.2,0c-0.1,0-0.3,0-0.5-0.1c-0.3,0-0.7-0.1-1-0.2c-0.2-0.1-0.5-0.2-0.8-0.3c-0.3-0.1-0.6-0.2-0.8-0.3
			c-0.3-0.1-2.6-0.6-3.4-0.9l-1.6-0.3l-3.5-2.4c0,0-1.4-0.9-1.8-1.2c-0.7-0.5-1.9-1.4-3-2.2c-0.5-0.4-1-0.7-1.3-1
			c-0.4-0.3-1-0.7-1.6-1.1c-1.3-0.9-2.8-2-3.7-2.7c-0.9-0.8-3.4-3.5-3.5-3.6l-0.1-0.1l0.2-1.5c-12-5.3-11.9-5.5-11.9-5.7l0.1-0.2
			l0.3,0c0.4,0.1,1.8,0.5,3.8,1.3c6,2.2,17.1,6.3,22.6,5.5c0.6-0.1,1.1,0,1.6,0c0.3,0,0.7,0.1,1,0.1c3.1,0,6.2-2.6,7.8-3.9
			c0.4-0.3,0.7-0.6,0.9-0.7c0.5-0.3,1.2-0.6,1.9-1c1-0.5,2-1.1,2.6-1.4l0.3-0.2c1.6-0.9,4.2-2.5,5.4-3.4c0.5-0.4,1.2-0.9,2-1.5
			c1.8-1.4,4.1-3.1,5-4c1-1.1,4.1-4.3,4.1-4.3l4.7-4.3l3.8-4l1.1-0.9l0.8-1L188,50l0.1,0.2c0.1,0.3,0.3,0.6,0.4,0.6
			c0.2,0.1,0.6,0.1,0.9,0.1l0.2,0c0.7,0,2.1-0.1,2.7-0.4c0.3-0.1,0.7-0.4,0.8-0.6c0.2-0.3,0.1-1.5,0.1-2.2l0-0.1L194,47
			c0.1-0.1,0.2-0.2,0.3-0.3c0.3-0.2,0.6-0.5,0.8-0.7c0.3-0.3,0.8-0.9,0.9-1.2c0.1-0.2,0.2-0.8,0.1-0.9c0-0.1-0.2-0.3-0.4-0.6
			l-0.2-0.2l0.2-0.2c0.3-0.3,0.7-0.9,0.8-1.1c0.1-0.2,0.2-0.8,0.1-1.1c0-0.2-0.1-0.7-0.2-0.9l0-0.1l0.6-1.1c0.2-0.3,0.4-1,0.4-1.3
			c0-0.2-0.1-0.7-0.1-0.9c-0.1-0.1-0.3-0.4-0.4-0.6c-0.1-0.1-0.5-0.3-0.7-0.5l-0.4-0.2l0.4-0.2c0,0,1.7-1.1,2.3-1.4l0.1-0.1
			c2-1.3,3.3-2.8,3.9-4.4c0.9-2.2,2.1-6.7,0.1-12.7l0,0c-0.9-2.8-4-5.8-9.7-5.6c-5.1,0.2-8.8,4.9-10.2,6.9l-0.1,0.1
			c-1,1.4-2.2,4.1-2.3,8.8l0,0.2c0,0.7,0.1,2.1,0.2,2.8c0.1,0.7,0.4,2.1,0.7,2.7c0.9,1.9,3.1,3.1,3.1,3.1l0.2,0.1l-1,1.6l-1.3,2.9
			l-1.8,3.3l-2.1,2.2l-4.5,4.1l-4.8,3.8c-0.1,0-5.2,2.2-6.7,3c-1.3,0.7-3.8,2-5.2,2.5c-0.5,0.2-1.3,0.4-2,0.6
			c-0.7,0.2-1.3,0.3-1.8,0.5c-0.8,0.3-2.5,1-3.3,1.4c-0.7,0.4-2.1,1.1-3,1.6l-0.5,0.3c-0.6,0.3-2.5,1.4-2.5,1.4l-0.1,0l-1.2-0.2
			l-6.8-2.9l-4.6,8.1l-0.4-0.2l4-9.8c-0.6-0.2-2.1-0.6-2.7-0.9c-0.7-0.3-1.9-1.2-2.3-1.8c-0.5-0.6-1.2-2.2-1.4-3
			c-0.2-0.6-0.2-1.6-0.2-2.4c0-0.4,0-0.7,0-1c-0.1-0.8-0.2-3-0.2-3l0-0.1l1.9-3.1l0.2,0c0,0,0.9,0.2,1.4,0.2c0,0,0,0,0,0
			c0.5,0,1.4-0.2,1.8-0.3c0.5-0.2,1.5-0.8,2-1.2c0.6-0.6,1.7-2,2.3-2.9c0.4-0.6,0.7-1.2,1.1-1.9c0.2-0.4,0.4-0.7,0.6-1.1
			c0.3-0.5,0.8-1.2,1.4-1.9c0.7-0.8,1.4-1.7,1.6-2.3c0.3-0.6,0.7-1.9,0.9-2.5c0.1-0.6,0.3-2.3,0.3-2.4l0-0.1l0.7-1
			c0.7-1.1,1.8-2.8,2.2-3.4c-0.2-0.1-0.4-0.2-0.6-0.2c-1.3-0.5-3.8-1.4-5.6-3c-2.6-2.3-4.8-5-4.8-5l0.4-0.3c0,0,4,3.8,5.4,4.7
			c1.3,0.9,6.3,2.7,6.4,2.7c0,0,0.2,0.1,0.3,0c0.2-0.1,0.4-0.4,0.6-1.4c0.1-0.8-0.1-1.7-0.3-2.5c-0.1-0.5-0.2-0.9-0.2-1.3
			c0-0.8-0.2-2.4-0.4-3.2c-0.3-1.1-1.4-3.3-1.8-4l-0.1-0.1c-0.4-0.7-1.1-2.1-1.6-2.7c-0.6-0.7-2-1.7-2.9-2.3
			c-0.8-0.5-2.4-1.4-3.2-1.7c-0.6-0.2-1.6-0.2-2.5-0.1c-0.6,0-1.1,0-1.5,0c-0.3,0-0.7-0.2-1-0.3c-0.7-0.3-1.4-0.5-2.2-0.3
			c-0.5,0.2-1.6,0-1.7,0l-0.2,0l0-0.2c0-0.2-0.1-0.5-0.2-0.6c0-0.1-0.1-0.2-0.2-0.3c0,0.2-0.1,0.4-0.1,0.5c-0.1,0.2-0.8,1.7-0.8,1.7
			l-0.5,1l0-1.1c0-0.7-0.1-1.6-0.1-1.7c0-0.1-0.2-0.2-0.3-0.4c0,0.7,0,1.6,0,1.8c0,0.4-0.4,1.2-0.4,1.3l-0.2,0.4L126,5.1l0.2,0.6
			l-1-0.8l0.1,0.2l-0.1,0.1c-0.1,0.1-0.3,0.4-0.5,0.4c-0.1,0-0.2,0-0.7-0.4c0,0.4-0.1,0.9-0.6,1.1c-0.2,0.1-0.5,0.4-0.8,0.7
			c-0.3,0.4-0.9,1.2-1.1,1.6c-0.3,0.6-0.7,2-1,2.8l-0.1,0.3c-0.1,0.4-0.3,2-0.5,3.4c-0.1,0.9-0.2,1.7-0.3,2c0,0.1,0.2,0.5,0.4,0.8
			c0.2,0.5,0.5,1,0.6,1.4c0.4,1.6,0.3,3,0.3,3l-0.5,0c-0.1-1.2-0.6-4.3-1.9-4.3c-0.1,0-0.4,0.3-0.7,0.6c-0.3,0.3-0.6,1.3-0.7,1.8
			c-0.1,0.4-0.2,1.1-0.2,1.4c0,0.2,0.1,0.6,0.2,0.9c0.1,0.3,0.1,0.6,0.2,0.8c0,0.4,0,1,0,1.4l0,0.3c0,0.2,0,0.4,0,0.6
			c0,0.4,0,0.9,0,1.1c0,0.1,0,0.2,0.1,0.4c0.1,0.2,0.1,0.4,0.1,0.6c0,0.5-0.3,2-0.3,2.1l0,0.1l-2.6,3.3c0.1,0.5,0.5,1.7,1,2.1
			c1.7,1.3,9,5.3,9,5.3l-0.2,0.5c-0.3-0.1-7.2-2.7-9.4-4.1c-2.6-1.6-3.3-3.2-3.5-3.8c-0.6,0.1-1.7,0.4-2.1,0.5
			c-0.6,0.3-1.6,1.1-2.1,1.6c-0.4,0.4-0.9,1.1-1.4,1.7c-0.3,0.4-0.7,0.8-0.9,1.1c-0.4,0.5-1.1,1.2-1.8,1.9c-0.6,0.6-1.2,1.3-1.6,1.7
			c-0.8,0.9-2.9,3.2-3.7,4.5c-1,1.3-2.6,4.2-3.5,5.8c-0.6,1.2-1.6,3.1-2.5,4.9c-0.6,1.2-1.1,2.3-1.5,3.1c-0.2,0.4-0.5,1-0.9,1.6
			c-0.6,1.1-1.4,2.4-1.7,3.2c-0.1,0.4-0.3,1-0.4,1.5c-0.1,0.4-0.2,0.8-0.3,1c-0.2,0.8-0.7,2.2-1.1,3.3l-0.4,1
			c-0.3,0.7-0.5,1.7-0.8,2.8c-0.7,2.5-1.6,5.6-2.7,7.1c-0.2,0.3-0.6,0.6-1.1,0.9c-0.4,0.3-0.9,0.6-1,0.8c-0.3,0.4-1.4,4-2.2,6.5
			c0.6,0.5,3.4,2.5,7.7,5.2c3.8,2.4,8.5,4.3,11.4,5.5c2.1,0.8,2.4,1,2.5,1.2l0,0.1l0,0.1c-0.5,1-8.5-1.2-13.8-3.6
			c-2.7-1.2-5.3-2.7-7.1-3.8c-1.1-0.7-2.3-1.3-2.6-1.4c-1.1,2.5-1.2,3.6-1.1,4.1c0.1,0.5,1.1,1.7,1.7,2.3l0.1,0.1l-0.1,0.2
			C76.5,99.9,74.7,104.1,74.1,105.3z"/>
		<path class="st1" d="M116.4,118.3c-5.2,0-18.7-1.9-21.8-3.1c-4.3-1.6-20.8-8.4-21.3-9.6l-0.1-0.2l0.1-0.3c0.4-0.8,1.8-4.1,2.3-5.2
			c-0.6-0.7-1.5-1.8-1.6-2.5c-0.2-0.9,0.2-2.4,1.2-4.7c0.1-0.2,0.2-0.3,0.4-0.4c0.5-0.2,1.1,0.2,3.4,1.5c1.8,1.1,4.4,2.6,7,3.8
			c3.5,1.5,6.7,2.5,9.2,3.1c-2.9-1.2-6.8-2.9-10-4.9c-4.9-3.1-7.8-5.3-7.9-5.3l-0.4-0.3l0.1-0.4c0.6-1.9,2-6.3,2.4-6.9
			c0.3-0.4,0.8-0.7,1.3-1.1c0.3-0.2,0.7-0.5,0.9-0.7c1-1.4,1.9-4.4,2.6-6.9c0.3-1.1,0.6-2.1,0.9-2.8l0.4-1c0.4-1.1,0.9-2.5,1.1-3.3
			c0.1-0.2,0.2-0.6,0.2-1c0.1-0.6,0.3-1.3,0.5-1.7c0.3-0.9,1.1-2.2,1.7-3.3c0.3-0.6,0.6-1.1,0.9-1.5c0.4-0.8,1-1.9,1.5-3.1
			c0.9-1.8,1.8-3.7,2.5-4.9c0.9-1.6,2.6-4.5,3.6-5.9c0.9-1.3,3-3.6,3.8-4.5c0.4-0.5,1-1.1,1.7-1.7c0.7-0.7,1.3-1.4,1.7-1.8
			c0.2-0.3,0.5-0.7,0.9-1.1c0.6-0.7,1.1-1.4,1.5-1.8c0.5-0.5,1.7-1.4,2.3-1.7c0.6-0.3,2.3-0.6,2.6-0.7l0.7-0.1l0.1,0.7
			c0,0,0.2,1.3,2.3,2.9c-0.7-0.8-1-2.2-1.1-2.5l-0.1-0.3l2.8-3.5c0.1-0.7,0.2-1.4,0.2-1.7c0-0.1-0.1-0.3-0.1-0.4
			c-0.1-0.2-0.1-0.4-0.1-0.5c0-0.3,0-0.8,0-1.2c0-0.3,0-0.4,0-0.6l0-0.3c0-0.4,0-1,0-1.4c0-0.2-0.1-0.4-0.1-0.6
			c-0.1-0.4-0.2-0.8-0.2-1.1c0-0.4,0.1-1.3,0.2-1.6c0.1-0.4,0.5-1.5,0.9-2.1c0.2-0.3,0.8-1,1.4-1c0.1,0,0.1,0,0.2,0
			c0-0.1,0-0.2,0-0.3c0.1-0.3,0.2-1.1,0.3-2c0.2-1.8,0.4-3.1,0.5-3.5l0.1-0.3c0.3-0.9,0.7-2.3,1-3c0.3-0.5,0.9-1.4,1.3-1.8
			c0.3-0.3,0.7-0.7,1-0.9c0.1-0.1,0.1-0.5,0-0.8l-0.4-1.8l0.9,0.7l-1.3-2.3l1.8,1.5L122-2l3.8,5.4c0-0.4,0-1.5-0.1-2.2l-0.1-1.6
			l1.1,1.2c0.1,0.2,0.6,0.6,0.8,1c0-0.2,0.1-0.3,0.1-0.5l0.2-1.4l0.9,1.1c0.1,0.1,0.5,0.7,0.7,0.9c0.1,0.1,0.1,0.2,0.2,0.4
			c0.4,0,0.8,0,0.9,0c1.1-0.4,2.1,0,2.8,0.3c0.3,0.1,0.6,0.2,0.8,0.2c0.3,0,0.9,0,1.4,0c1,0,2.1-0.1,2.8,0.2
			c0.9,0.3,2.6,1.2,3.4,1.8c0.8,0.5,2.4,1.6,3.1,2.4c0.6,0.6,1.3,2,1.7,2.8l0.1,0.1c0.4,0.7,1.5,3,1.9,4.2c0.2,0.9,0.4,2.6,0.4,3.4
			c0,0.2,0.1,0.7,0.2,1.1c0.2,0.8,0.4,1.8,0.3,2.8c-0.1,1-0.5,1.7-1,2c-0.4,0.2-0.8,0.2-1,0.1c0,0,0,0,0,0l0.1,0.2l-0.1,0.3
			c-0.2,0.3-1.8,2.9-2.3,3.7l-0.6,0.9c0,0.4-0.2,1.8-0.3,2.3c-0.2,0.7-0.6,2-0.9,2.7c-0.3,0.7-1,1.6-1.7,2.5c-0.5,0.7-1,1.3-1.3,1.7
			c-0.2,0.4-0.4,0.7-0.6,1.1c-0.3,0.7-0.7,1.3-1.1,2c-0.1,0.1-1.5,2.2-2.4,3c-0.5,0.4-1.6,1.1-2.2,1.4c-0.5,0.2-1.6,0.4-2.1,0.4
			c0,0,0,0,0,0c-0.4,0-0.9-0.1-1.2-0.1l-1.5,2.3c0,0.6,0.2,2.2,0.2,2.8c0,0.3,0,0.6,0,1c0,0.8,0.1,1.8,0.2,2.3
			c0.2,0.7,0.8,2.1,1.2,2.7c0.4,0.5,1.5,1.2,2.1,1.5c0.5,0.3,2,0.7,2.8,0.9l0.7,0.2l-0.8,1.9l0.3-0.5l7.5,3.2l0.8,0.1
			c0.5-0.3,1.8-1,2.4-1.3l0.5-0.3c0.9-0.5,2.3-1.2,3-1.6c0.8-0.4,2.5-1.2,3.4-1.5c0.5-0.2,1.1-0.3,1.8-0.5c0.7-0.2,1.5-0.4,1.9-0.6
			c1.3-0.5,3.8-1.8,5.1-2.5c1.5-0.8,6.1-2.8,6.7-3l4.6-3.7l4.5-4.1l2-2.1l1.7-3.2l1.3-2.9l0.6-0.9c-0.8-0.5-2.2-1.6-2.9-3.2
			c-0.4-0.8-0.7-2.5-0.8-3c-0.1-0.7-0.2-2.2-0.2-2.9l0-0.2c0.1-4.9,1.4-7.7,2.5-9.2l0.1-0.1c1.5-2.1,5.4-7.1,10.9-7.3
			c6.2-0.2,9.5,3,10.6,6.2c2.1,6.2,0.8,11-0.2,13.3c-0.7,1.8-2.2,3.4-4.3,4.8l-0.1,0.1c-0.3,0.2-0.9,0.6-1.5,0.9c0,0,0,0,0,0
			c0.2,0.2,0.5,0.6,0.6,0.9c0.1,0.3,0.2,0.9,0.2,1.3c0,0.4-0.4,1.3-0.5,1.6l-0.5,0.8c0.1,0.3,0.2,0.7,0.2,0.9c0,0.4,0,1.1-0.2,1.5
			c-0.1,0.2-0.3,0.5-0.6,0.9c0.2,0.3,0.2,0.4,0.3,0.5c0.1,0.4,0,1.1-0.2,1.5c-0.2,0.5-0.8,1.2-1.1,1.5c-0.2,0.2-0.6,0.5-0.9,0.7
			l-0.8,0.7c0,0.8,0,1.8-0.2,2.3c-0.2,0.5-0.9,0.9-1.2,1c-0.8,0.3-2.3,0.5-3.1,0.4l-0.1,0c-0.5,0-1-0.1-1.3-0.3
			c-0.1,0-0.2-0.1-0.4-0.4l-0.8,0.4l-0.7,0.9l-1.2,1l-3.8,4l-4.7,4.3l0,0c-0.2,0.2-0.5,0.6-1.2,1.3l-2.9,3c-0.9,1-3.3,2.7-5.1,4.1
			c-0.8,0.6-1.5,1.1-2,1.5c-1.3,1-3.9,2.6-5.5,3.5l-0.3,0.2c-0.6,0.4-1.7,0.9-2.6,1.4c-0.8,0.4-1.4,0.8-1.9,1
			c-0.1,0.1-0.4,0.3-0.8,0.6c-1.6,1.3-4.9,4.1-8.3,4.1c-0.4,0-0.7,0-1.1-0.1c-0.5-0.1-1-0.1-1.4,0c-3.8,0.5-9.9-1.1-15.3-2.9
			c0.3,0.1,0.6,0.3,0.9,0.4l0.4,0.2l-0.2,1.8c0.6,0.7,2.5,2.7,3.3,3.3c0.8,0.7,2.3,1.8,3.6,2.7c0.6,0.5,1.2,0.8,1.6,1.2
			c0.4,0.3,0.8,0.6,1.3,1c1,0.8,2.2,1.7,2.9,2.2c0.4,0.3,1.8,1.1,1.8,1.2l3.4,2.4l1.3,0.2c0.1,0,3.2,0.7,3.6,0.9
			c0.2,0.1,0.5,0.2,0.7,0.3c0.3,0.1,0.6,0.2,0.8,0.3c0.1,0.1,0.5,0.1,0.8,0.1c0.2,0,0.4,0,0.5,0.1l0.2,0c0.2,0,0.7,0.1,0.8,0.1
			c0.2,0,0.4-0.1,0.7-0.1c0.3-0.1,0.7-0.2,0.9-0.2c0.3,0,0.7,0,0.9,0.2c0.2,0.1,0.5,0.5,0.6,0.8c0,0.1,0.1,0.3,0,0.9
			c0.5,0.3,1.2,0.6,1.5,0.8c0.4,0.2,1.3,0.8,1.7,1.2c0.8,0.6,2.2,2.1,2.8,2.8l0.2,0.2c0.5,0.5,1.1,1.2,1.2,1.8c0.1,0.3,0,1-0.2,1.4
			c-0.2,0.3-0.7,0.5-1,0.5l0.3,0.4c0,0,0.6,0.9,0.9,1.3l0.1,0.1c0.4,0.6,0.5,0.9,0.5,1.3c-0.1,0.6-0.9,1-1.1,1.1
			c-0.4,0.1-1.1-0.1-1.3-0.1c-0.1,0-0.2-0.1-0.3-0.1c0,0,0,0,0,0c0,0.5-0.3,1.1-0.6,1.4c-0.4,0.3-1.2,0.4-1.6,0.2
			c-0.4-0.1-0.6-0.5-0.9-0.8c0,0,0,0,0,0c-0.3,0.3-0.7,0.5-0.9,0.6c-0.5,0.1-1.2-0.1-1.4-0.2c-0.4-0.1-0.9-0.5-1.2-0.8
			c-0.2-0.2-0.5-0.6-0.6-0.9l-0.8-0.7l-1.1-0.9l-2.1-1.2l-0.3-0.5l-1.8,0l-1.6-0.2l-3.3-1.2l-2.5-1.6l-1.4-1.9
			c-0.8-0.4-1.7-0.9-2.1-1c-0.2,0-0.6-0.2-1.1-0.3l-0.1,0c-1.8-0.5-4.3-1.2-5.1-1.5l-0.5-0.2c-2-0.9-5.4-2.3-7.1-3.3
			c-0.9-0.5-2.8-2-2.9-2l-0.2-0.2c0,0.1-0.1,0.2-0.1,0.3c-0.4,1-1.6,2.3-2.7,3.3c-0.5,0.5-1.3,1.3-1.4,1.5c-0.2,0.7-0.5,1.5-0.8,2.5
			c-0.6,1.7-1.2,3.5-1.2,4.7c0,1.7-0.2,2.8-0.4,3.6c-0.3,1.7-0.4,2.2,2.3,6.6c0.2,0.3,0.2,0.6,0,0.8
			C118.4,118.1,118,118.3,116.4,118.3z M74.6,105.2c2,1.2,13,6,20.4,8.8c4,1.5,18.9,3.2,22.2,3c-2.6-4.2-2.5-5-2.1-6.9
			c0.2-0.8,0.3-1.8,0.4-3.4c0-1.3,0.7-3.3,1.3-5c0.3-0.9,0.6-1.8,0.7-2.4c0.1-0.5,0.7-1.1,1.7-2.1c0.9-0.9,2.1-2.1,2.4-2.9
			c0.2-0.5,1.1-4,1.9-7.1l0.1-0.3l0.4,0l0.8,0.1l-0.7,6.8c0.6,0.4,1.8,1.4,2.5,1.7c1.6,0.9,4.9,2.4,6.9,3.2L134,99
			c0.6,0.3,3.4,1,4.9,1.5c0.6,0.2,1.1,0.3,1.3,0.4c0.7,0.2,2.5,1.2,2.5,1.2l0.2,0.1l1.4,2l2,1.3l3,1.1l1.4,0.2l2.3,0.1l0.6,0.8
			l1.9,1l1.2,1l1,0.9c0.2,0.3,0.4,0.6,0.5,0.7c0.2,0.1,0.6,0.4,0.7,0.5c0.2,0.1,0.6,0.1,0.7,0.1c0,0,0.1-0.1,0.2-0.1
			c-0.1-0.2-0.5-0.7-1.1-1.2l-0.3-0.2l0.8-0.9l1,0.8c0,0,0.2,0.2,0.3,0.3c0.3,0.3,0.7,0.7,0.9,0.9c0.1,0.1,0.2,0.2,0.3,0.3
			c0.1,0.1,0.3,0.4,0.4,0.4c0.1,0,0.4,0,0.5-0.1c0,0,0.1-0.1,0.1-0.2c0-0.1-0.1-0.2-0.3-0.3l-0.1-0.2c-0.3-0.3-0.8-1.2-1-1.4
			l-3.2-4.5l4.7,3.3c0.3,0.5,0.8,1.3,1,1.5c0.2,0.2,0.7,0.4,0.9,0.5c0.2,0.1,0.5,0.1,0.6,0.1c0,0,0.1,0,0.1-0.1
			c0-0.1-0.1-0.2-0.2-0.4l-0.1-0.1c-0.2-0.3-0.7-1.1-0.8-1.2l-2-2.8l1.6,0.4c0.4,0.1,0.6,0.1,0.7,0.1c0.2,0,0.3-0.1,0.4-0.1
			c0-0.1,0-0.3,0-0.3c-0.1-0.3-0.7-1-0.9-1.3l-0.2-0.2c-0.6-0.7-1.9-2.1-2.7-2.6c-0.3-0.3-1.1-0.8-1.5-1.1c-0.2-0.1-0.9-0.5-1.8-0.9
			l-0.5-0.2l0.1-0.5c0.1-0.3,0.1-0.7,0.1-0.8c0,0-0.1,0-0.2,0c-0.1,0-0.4,0.1-0.6,0.1c-0.3,0.1-0.7,0.2-0.9,0.2c0,0,0,0,0,0
			c-0.2,0-0.6,0-1.1-0.1l-0.2,0c-0.1,0-0.2,0-0.4,0c-0.4,0-0.8-0.1-1.1-0.2c-0.2-0.1-0.5-0.2-0.7-0.3c-0.3-0.1-0.6-0.2-0.8-0.3
			c-0.2-0.1-2.1-0.5-3.4-0.8l-1.7-0.3l-3.5-2.4c0,0-1.4-0.9-1.8-1.2c-0.7-0.5-1.9-1.4-3-2.2c-0.5-0.4-1-0.7-1.3-1
			c-0.4-0.3-1-0.7-1.5-1.1c-1.3-1-2.8-2-3.7-2.8c-1-0.9-3.5-3.6-3.6-3.6l-0.2-0.2l0.2-1.4c-12-5.3-12-5.4-11.8-6.1l0.1-0.5l0.6,0
			c0.5,0.1,1.6,0.5,3.9,1.3c5.9,2.2,17,6.2,22.5,5.5c0.6-0.1,1.1,0,1.7,0c0.3,0,0.7,0.1,1,0.1c2.9,0,6-2.6,7.5-3.8
			c0.5-0.4,0.7-0.6,1-0.7c0.5-0.3,1.2-0.6,1.9-1c1-0.5,2-1.1,2.6-1.4l0.3-0.2c1.6-0.9,4.2-2.4,5.4-3.4c0.5-0.4,1.2-0.9,2-1.5
			c1.8-1.4,4.1-3,5-4c1-1.1,4.1-4.3,4.1-4.3l4.7-4.3l3.8-4l1.1-0.9l0.9-1l2-1l0.3,0.5c0.1,0.3,0.3,0.5,0.3,0.5c0,0,0.2,0,0.6,0
			l0.2,0c0.6,0,2-0.1,2.5-0.3c0.2-0.1,0.5-0.3,0.6-0.4c0.1-0.2,0.1-1,0-2l0-0.3l1.3-1c0.3-0.3,0.7-0.5,0.8-0.7
			c0.3-0.3,0.7-0.9,0.8-1.1c0.1-0.2,0.1-0.6,0.1-0.7c0,0-0.2-0.2-0.3-0.4l-0.4-0.4l0.4-0.4c0.4-0.4,0.7-0.9,0.8-1
			c0.1-0.2,0.1-0.7,0.1-0.9c0-0.1-0.1-0.5-0.2-0.8l-0.1-0.3l0.7-1.2c0.2-0.4,0.4-1,0.4-1.1c0-0.1-0.1-0.6-0.1-0.7
			c0-0.1-0.2-0.3-0.3-0.4c-0.1-0.1-0.3-0.2-0.6-0.4l-0.9-0.5l0.9-0.6c0,0,1.7-1.1,2.3-1.4l0.1-0.1c1.9-1.2,3.2-2.7,3.8-4.2
			c0.9-2.1,2.1-6.6,0.1-12.4c-0.9-2.7-3.8-5.5-9.3-5.3c-4.9,0.2-8.6,4.8-9.9,6.7l-0.1,0.1c-1,1.4-2.2,4-2.3,8.6l0,0.2
			c0,0.7,0.1,2.1,0.2,2.7c0.1,0.8,0.4,2.1,0.7,2.6c0.8,1.7,2.9,2.9,3,2.9l0.6,0.3l-1.2,2l-1.3,2.9l-1.9,3.4l-2.1,2.2l-4.5,4.1
			l-4.9,3.9c-0.9,0.4-5.3,2.2-6.7,3c-1.3,0.7-3.9,2-5.2,2.5c-0.5,0.2-1.3,0.4-2,0.6c-0.7,0.2-1.3,0.3-1.7,0.5
			c-0.8,0.3-2.5,1-3.3,1.4c-0.7,0.4-2.1,1.1-3,1.6l-0.5,0.3c-0.6,0.3-2.5,1.4-2.5,1.4l-0.1,0.1l-0.2,0l-1.3-0.2l-6.5-2.8l-4.6,8.1
			l-1.1-0.5l4-9.7c-0.8-0.2-1.9-0.6-2.4-0.8c-0.7-0.4-1.9-1.2-2.4-1.9c-0.6-0.7-1.3-2.3-1.5-3.1c-0.2-0.6-0.2-1.6-0.2-2.5
			c0-0.4,0-0.7,0-1c-0.1-0.8-0.2-3-0.2-3l0-0.1l0.1-0.2l2.1-3.3l0.4,0.1c0,0,0.9,0.2,1.3,0.2c0.4,0,1.3-0.1,1.7-0.3
			c0.5-0.2,1.4-0.8,1.8-1.2c0.6-0.6,1.7-2,2.2-2.8c0.4-0.6,0.7-1.2,1-1.8c0.2-0.4,0.4-0.8,0.6-1.1c0.3-0.5,0.8-1.2,1.4-1.9
			c0.7-0.8,1.3-1.7,1.6-2.2c0.3-0.6,0.7-1.8,0.8-2.5c0.1-0.4,0.2-1.7,0.3-2.3l0.1-0.3l0.7-1c0.7-1,1.5-2.3,1.9-3
			c-0.1,0-0.1,0-0.2-0.1c-1.4-0.5-3.8-1.4-5.8-3.1c-2.6-2.3-4.8-5-4.9-5.1l-0.2-0.3l0.9-0.8L136,15c1.5,1.4,4.3,4,5.4,4.7
			c1.3,0.8,6.1,2.6,6.3,2.6c0,0,0.3-0.2,0.4-1.1c0.1-0.8-0.1-1.6-0.3-2.4c-0.1-0.5-0.2-1-0.2-1.4c0-0.7-0.2-2.3-0.4-3.1
			c-0.3-1.1-1.4-3.3-1.8-4l-0.1-0.1c-0.3-0.7-1.1-2.1-1.5-2.6c-0.5-0.6-2-1.7-2.8-2.2c-0.8-0.5-2.3-1.4-3.1-1.6
			c-0.5-0.2-1.5-0.1-2.4-0.1c-0.6,0-1.1,0-1.5,0c-0.4,0-0.8-0.2-1.1-0.3c-0.6-0.2-1.3-0.5-1.9-0.3c-0.6,0.2-1.6,0.1-1.9,0l-0.4-0.1
			l-0.1-0.4c-0.2,0.5-0.6,1.4-0.6,1.4l-1,2.2l0.3,0.6l-1.7-1.4c-0.2,0.3-0.5,0.4-0.7,0.4c-0.1,0-0.2,0-0.4-0.1
			c-0.1,0.5-0.4,0.7-0.7,0.8c-0.1,0-0.3,0.2-0.6,0.6c-0.3,0.3-0.9,1.1-1.1,1.5c-0.3,0.6-0.7,2-0.9,2.8l-0.1,0.3
			c-0.1,0.4-0.3,2.1-0.5,3.3c-0.1,0.9-0.2,1.6-0.3,2c0.1,0.1,0.2,0.5,0.3,0.7c0.2,0.5,0.5,1,0.6,1.5c0.4,1.6,0.4,3,0.4,3.1l0,0.4
			l-1.2,0l0-0.4c-0.1-1.6-0.7-3.8-1.4-3.9c-0.1,0.1-0.3,0.2-0.4,0.5c-0.2,0.3-0.5,1.1-0.7,1.6c-0.1,0.3-0.2,1-0.2,1.3
			c0,0.2,0.1,0.5,0.2,0.8c0.1,0.3,0.1,0.6,0.2,0.8c0,0.4,0,1,0,1.5l0,0.3c0,0.2,0,0.4,0,0.6c0,0.4,0,0.9,0,1.1c0,0.1,0,0.2,0.1,0.3
			c0.1,0.3,0.1,0.5,0.1,0.7c0,0.6-0.3,2-0.3,2.1l-0.1,0.2l-2.6,3.2c0.2,0.7,0.5,1.5,0.9,1.8c1.3,1,6.3,3.8,9,5.3l0.3,0.2l-0.5,1.1
			l-0.3-0.1c-0.7-0.3-7.3-2.8-9.4-4.1c-2.4-1.5-3.2-2.9-3.5-3.7c-0.8,0.2-1.5,0.3-1.7,0.5c-0.5,0.3-1.6,1.1-2,1.5
			c-0.4,0.3-0.9,1-1.4,1.7c-0.4,0.5-0.7,0.9-0.9,1.2c-0.4,0.5-1.1,1.2-1.8,1.9c-0.6,0.6-1.2,1.3-1.6,1.7c-0.8,0.9-2.9,3.2-3.7,4.4
			c-0.9,1.3-2.6,4.2-3.5,5.8c-0.6,1.1-1.6,3.1-2.4,4.8l-0.4-0.1l0.3,0.2c-0.6,1.2-1.1,2.3-1.5,3c-0.2,0.4-0.5,1-0.9,1.6
			c-0.6,1.1-1.4,2.4-1.7,3.2c-0.1,0.3-0.3,0.9-0.4,1.5c-0.1,0.4-0.2,0.8-0.3,1.1c-0.2,0.8-0.7,2.2-1.1,3.2l-0.4,1.1
			c-0.3,0.7-0.5,1.7-0.8,2.7c-0.7,2.6-1.6,5.7-2.7,7.3c-0.3,0.4-0.7,0.7-1.2,1c-0.3,0.2-0.8,0.5-0.9,0.7c-0.2,0.3-1.1,3-2.1,6.1
			c1,0.7,3.6,2.6,7.5,5c3.7,2.4,8.5,4.3,11.3,5.4c2.2,0.9,2.6,1,2.7,1.4l0.1,0.2l0,0.1l0.6,0.3l-0.7,0c-1,1.5-10.7-1.9-14.3-3.4
			c-2.7-1.2-5.3-2.7-7.2-3.8c-0.7-0.4-1.7-1-2.2-1.3c-1,2.3-1,3.2-0.9,3.6c0.1,0.3,0.8,1.3,1.6,2.1l0.3,0.3l-0.2,0.4
			C76.8,100.1,75.3,103.7,74.6,105.2z M123.5,90.5l0.2,0l0.2-1.6C123.7,89.4,123.6,89.9,123.5,90.5z M117.8,75.1
			c0.5,0.2,1.2,0.6,2.1,1l0.1-0.2C119.1,75.6,118.4,75.3,117.8,75.1z M132.8,66.4l-0.7,1.7l0.9-1.6L132.8,66.4z M121.2,39.5
			c0.7,0.3,1.3,0.5,1.8,0.7c-0.5-0.3-1.1-0.6-1.7-0.9L121.2,39.5z M120.1,18.9c0.1,0.2,0.2,0.4,0.3,0.6c0-0.1,0-0.1,0-0.2
			C120.3,19.2,120.3,19.1,120.1,18.9L120.1,18.9z M137,17.1c0.6,0.7,1.4,1.5,2.3,2.4l0.2-0.2C138.7,18.6,137.8,17.8,137,17.1z
			 M126.4,5.2l0.3,0.7l0-1.4c-0.1,0.2-0.1,0.3-0.2,0.4L126.4,5.2z"/>
	</g>
</g>
<g>
	<path class="st3" d="M123.1,22.6c0,0,2.9-1.1,3.7-1.8c0.9-0.7,3-3.4,3-3.4s-1.7,3.2-2.7,3.9C126.2,22,123.1,22.6,123.1,22.6
		L123.1,22.6z"/>
	<path class="st1" d="M123.2,23.1l-0.3-1c0.8-0.3,3-1.2,3.6-1.7c0.7-0.5,2.3-2.6,2.9-3.3l0.8,0.5c-0.2,0.3-1.8,3.3-2.8,4.1
		C126.4,22.5,123.5,23,123.2,23.1z"/>
</g>
<g>
	<path class="st3" d="M103.1,57.2c0,0,2.5,7.3,3.8,9.4c1.5,2.3,7.8,7.7,7.8,7.7s-7.3-4.5-9-6.9C104.3,65,103.1,57.2,103.1,57.2
		L103.1,57.2z"/>
	<path class="st1" d="M114.6,74.5c-0.3-0.2-7.4-4.6-9-7c-1.5-2.3-2.7-9.9-2.7-10.3l0.5-0.1c0,0.1,2.5,7.3,3.8,9.3
		c1.5,2.2,7.7,7.6,7.8,7.7L114.6,74.5z M103.9,60.1c0.5,2.5,1.3,5.8,2.1,7.1c0.9,1.4,3.9,3.6,6.2,5.1c-2-1.8-4.5-4.3-5.5-5.6
		C105.9,65.5,104.7,62.4,103.9,60.1z"/>
</g>
<path class="st4" d="M251.1,182.3l41.4-25.4L251.1,182.3z"/>
<path class="st4" d="M286.5,182.7"/>
<line class="st4" x1="245.8" y1="185.5" x2="299.9" y2="152.3"/>
<g>
	<g>
		<path class="st5" d="M202.1,30.2c-1.9,2.8-4.5,3.9-5.5,4.3c-1.4,0.6-3.3,0.7-7.2,0.9c-2.9,0.2-3.9,0-4.9-0.5
			c-0.4-0.2-2-0.9-3.1-2.6c-1.2-1.8-1.1-3.7-1-6.5c0.1-2,0.2-4.9,1.8-7.8c0.6-1,1.2-1.8,1.6-2.4c0.7-0.9,1.4-1.6,1.9-2.1
			c0.8-0.8,2-1.8,3.8-2.7c1-0.4,1.8-0.6,2.1-0.7c0.9-0.2,4.3-0.9,7.6,1c0.7,0.4,2.2,1.3,3.2,3c0.6,1,0.8,1.9,1.1,2.9
			c0.2,0.6,0.5,1.9,0.6,3.6c0.1,1.2,0.2,3.1-0.4,5.5C203.6,27.1,203.2,28.6,202.1,30.2z"/>
		<path class="st1" d="M187.5,35.8c-1.5,0-2.3-0.2-3.2-0.6c-1.3-0.6-2.5-1.6-3.2-2.7c-1.3-1.9-1.2-3.8-1.1-6.8
			c0.1-1.9,0.2-4.9,1.9-8c0.5-0.9,1-1.7,1.7-2.4c0.6-0.8,1.3-1.5,2-2.1c0.8-0.7,2-1.9,3.9-2.7c0.7-0.3,1.4-0.6,2.1-0.7
			c2.8-0.6,5.6-0.2,7.9,1.1c0.7,0.4,2.2,1.3,3.3,3.2c0.6,1,0.9,2,1.1,3c0.3,1.2,0.5,2.4,0.6,3.7c0.1,1.1,0.2,3.2-0.4,5.6
			c-0.2,0.9-0.6,2.4-1.8,4.1l0,0c-1.3,2-3.2,3.5-5.6,4.4c-1.4,0.6-3.4,0.7-7.3,0.9C188.7,35.7,188.1,35.8,187.5,35.8z M194.3,10.1
			c-1,0-1.8,0.1-2.5,0.3c-0.4,0.1-1.1,0.3-2,0.7c-1.8,0.8-3,1.9-3.7,2.6c-0.7,0.6-1.3,1.3-1.9,2.1c-0.6,0.7-1.2,1.5-1.6,2.3
			c-1.6,3-1.7,5.8-1.8,7.7c-0.1,2.9-0.1,4.6,1,6.3c0.7,1.1,1.7,1.9,2.9,2.5c0.9,0.4,1.8,0.6,4.7,0.4c3.8-0.2,5.7-0.3,7-0.8
			c2.3-0.9,4.1-2.3,5.3-4.2c1.1-1.6,1.5-3.1,1.7-3.9c0.6-2.4,0.5-4.3,0.4-5.4c-0.1-1.2-0.3-2.4-0.6-3.5c-0.3-1-0.5-1.9-1.1-2.8
			c-1-1.7-2.4-2.5-3.1-2.9C197.4,10.4,195.7,10.1,194.3,10.1z"/>
	</g>
	<g>
		<path class="st1" d="M187.5,35.6c-1.5,0-2.3-0.2-3.1-0.5c-1.3-0.6-2.4-1.5-3.2-2.7c-1.2-1.9-1.2-3.8-1.1-6.7
			c0.1-1.9,0.2-4.9,1.8-8c0.5-0.9,1-1.7,1.7-2.4c0.6-0.8,1.3-1.5,2-2.1c0.8-0.7,2-1.9,3.9-2.7c0.9-0.4,1.7-0.6,2.1-0.7
			c2.8-0.6,5.5-0.2,7.8,1.1c0.7,0.4,2.2,1.3,3.3,3.1c0.6,1,0.8,1.9,1.1,2.9c0.3,1.1,0.5,2.4,0.6,3.7c0.1,1.1,0.2,3.1-0.4,5.6
			c-0.2,0.8-0.6,2.4-1.8,4.1l0,0c-1.3,2-3.2,3.4-5.6,4.4c-1.4,0.6-3.4,0.7-7.2,0.9C188.7,35.6,188.1,35.6,187.5,35.6z M194.3,10
			c-0.8,0-1.6,0.1-2.5,0.3c-0.4,0.1-1.1,0.3-2,0.7c-1.8,0.8-3,1.9-3.8,2.6c-0.7,0.6-1.3,1.3-1.9,2.1c-0.6,0.7-1.2,1.5-1.6,2.3
			c-1.6,3-1.7,5.8-1.8,7.7c-0.1,2.9-0.1,4.6,1,6.4c0.7,1.1,1.7,2,3,2.5c1,0.4,1.9,0.6,4.8,0.4c3.8-0.2,5.7-0.3,7.1-0.9
			c2.3-0.9,4.1-2.3,5.4-4.2l0,0c1.1-1.6,1.5-3.1,1.7-3.9c0.6-2.4,0.5-4.4,0.4-5.4c-0.1-1.2-0.3-2.5-0.6-3.6c-0.3-1-0.5-1.9-1.1-2.8
			c-1-1.7-2.4-2.6-3.1-3C197.7,10.4,196,10,194.3,10z"/>
		<path class="st1" d="M187.5,36c-1.4,0-2.3-0.2-3.3-0.6c-1.4-0.6-2.5-1.6-3.3-2.8c-1.3-2-1.2-3.9-1.1-6.9c0.1-2,0.2-5,1.9-8.1
			c0.5-0.9,1.1-1.7,1.7-2.5c0.6-0.8,1.3-1.5,2-2.2c0.8-0.7,2.1-1.9,4-2.8c1-0.4,1.8-0.6,2.2-0.7c2.9-0.6,5.7-0.3,8.1,1.1
			c0.7,0.4,2.3,1.3,3.4,3.3c0.6,1,0.9,2,1.2,3c0.3,1.2,0.5,2.5,0.6,3.7c0.1,1.1,0.2,3.2-0.4,5.7c-0.2,0.9-0.7,2.5-1.8,4.2
			c-1.4,2-3.3,3.5-5.8,4.5c-1.5,0.6-3.4,0.7-7.3,0.9C188.7,36,188.1,36,187.5,36z M194.3,10.4c-0.8,0-1.6,0.1-2.4,0.3
			c-0.4,0.1-1.1,0.3-1.9,0.7c-1.8,0.8-2.9,1.8-3.7,2.5c-0.7,0.6-1.3,1.3-1.9,2c-0.6,0.7-1.1,1.5-1.6,2.3c-1.6,2.9-1.7,5.7-1.7,7.6
			c-0.1,2.8-0.1,4.5,0.9,6.2c0.7,1,1.6,1.9,2.8,2.4c0.9,0.4,1.8,0.6,4.6,0.4c3.8-0.2,5.7-0.3,7-0.8c2.2-0.9,4-2.3,5.2-4.1
			c1-1.5,1.4-3,1.6-3.8c0.6-2.3,0.5-4.3,0.4-5.3c-0.1-1.2-0.3-2.4-0.6-3.5c-0.3-1-0.5-1.8-1-2.7c-1-1.6-2.3-2.4-3-2.8
			C197.6,10.8,196,10.4,194.3,10.4z"/>
	</g>
</g>
<g>
	<path class="st6" d="M187.3,84.3c-0.1,1.9-0.7,3.4-1.8,4.4c-1.1,1.1-2.6,1.6-4.4,1.6c-2,0-3.5-0.8-4.7-2.3
		c-1.1-1.5-1.7-3.6-1.7-6.2v-1.1c0-1.7,0.3-3.2,0.8-4.4c0.5-1.3,1.3-2.3,2.2-2.9c1-0.7,2.1-1,3.4-1c1.8,0,3.2,0.5,4.3,1.6
		c1.1,1.1,1.7,2.6,1.9,4.5h-3.2c-0.1-1.1-0.4-1.9-0.8-2.4c-0.5-0.5-1.2-0.8-2.2-0.8c-1.1,0-1.8,0.4-2.4,1.3s-0.8,2.2-0.8,4V82
		c0,1.9,0.3,3.3,0.8,4.1c0.5,0.9,1.3,1.3,2.4,1.3c1,0,1.7-0.3,2.2-0.8c0.5-0.5,0.8-1.3,0.8-2.4H187.3z"/>
	<path class="st7" d="M192,90.1h-2V71.7h2V90.1z"/>
	<path class="st7" d="M202.6,88.8c-0.8,1-1.9,1.5-3.4,1.5c-1.2,0-2.1-0.4-2.8-1.2c-0.6-0.8-1-2-1-3.6v-8.4h2v8.4
		c0,2,0.7,2.9,2.1,2.9c1.5,0,2.5-0.6,3-1.9v-9.4h2v13h-1.9L202.6,88.8z"/>
	<path class="st7" d="M217.5,83.7c0,2-0.4,3.6-1.2,4.8c-0.8,1.2-1.9,1.8-3.2,1.8c-1.4,0-2.6-0.6-3.4-1.7l-0.1,1.5h-1.8V71.7h2v6.9
		c0.8-1.1,1.9-1.7,3.3-1.7s2.5,0.6,3.3,1.8s1.2,2.8,1.2,4.9V83.7z M215.6,83.5c0-1.5-0.3-2.7-0.8-3.5s-1.3-1.2-2.2-1.2
		c-1.3,0-2.2,0.7-2.8,2v5.6c0.6,1.4,1.5,2,2.8,2c0.9,0,1.7-0.4,2.2-1.2C215.3,86.4,215.6,85.1,215.6,83.5z"/>
	<path class="st6" d="M178.4,113.4v6.1h-3.2v-17.4h6c1.2,0,2.2,0.2,3.1,0.7c0.9,0.5,1.6,1.2,2,2c0.5,0.9,0.7,1.9,0.7,3
		c0,1.7-0.5,3.1-1.5,4c-1,1-2.5,1.5-4.3,1.5H178.4z M178.4,110.5h2.8c0.8,0,1.5-0.2,1.9-0.7c0.4-0.4,0.7-1.1,0.7-1.9
		c0-0.9-0.2-1.5-0.7-2.1s-1.1-0.8-1.8-0.8h-2.9V110.5z"/>
	<path class="st7" d="M189.2,112.9c0-1.3,0.2-2.4,0.7-3.4c0.4-1,1.1-1.8,1.8-2.3s1.7-0.8,2.7-0.8c1.6,0,2.8,0.6,3.8,1.8
		s1.4,2.8,1.4,4.9v0.2c0,1.3-0.2,2.4-0.6,3.4c-0.4,1-1,1.8-1.8,2.3c-0.8,0.6-1.7,0.8-2.7,0.8c-1.6,0-2.8-0.6-3.8-1.8
		c-1-1.2-1.4-2.8-1.4-4.8V112.9z M191.2,113.2c0,1.4,0.3,2.6,0.9,3.5c0.6,0.9,1.4,1.3,2.4,1.3c1,0,1.8-0.4,2.4-1.3
		c0.6-0.9,0.9-2.1,0.9-3.7c0-1.4-0.3-2.6-0.9-3.5c-0.6-0.9-1.4-1.3-2.4-1.3c-1,0-1.7,0.4-2.3,1.3
		C191.4,110.3,191.2,111.6,191.2,113.2z"/>
	<path class="st7" d="M204.3,106.6l0.1,1.6c0.9-1.2,2-1.9,3.4-1.9c2.4,0,3.6,1.5,3.7,4.6v8.6h-2v-8.6c0-0.9-0.2-1.6-0.6-2.1
		c-0.4-0.4-0.9-0.7-1.7-0.7c-0.6,0-1.2,0.2-1.7,0.6s-0.9,0.9-1.1,1.5v9.2h-2v-13H204.3z"/>
	<path class="st7" d="M214.3,112.9c0-2,0.4-3.6,1.2-4.8c0.8-1.2,1.9-1.8,3.3-1.8c1.4,0,2.5,0.6,3.3,1.7l0.1-1.4h1.8v12.6
		c0,1.7-0.4,3-1.3,4s-2.1,1.4-3.5,1.4c-0.8,0-1.6-0.2-2.4-0.6c-0.8-0.4-1.4-0.9-1.8-1.6l1-1.3c0.8,1.2,1.9,1.8,3.1,1.8
		c1,0,1.7-0.3,2.2-0.9c0.5-0.6,0.8-1.5,0.8-2.6v-1.1c-0.8,1-1.9,1.5-3.2,1.5c-1.3,0-2.4-0.6-3.3-1.8
		C214.7,116.7,214.3,115,214.3,112.9z M216.2,113.2c0,1.5,0.3,2.6,0.8,3.4c0.5,0.8,1.3,1.3,2.2,1.3c1.2,0,2.1-0.6,2.7-1.9V110
		c-0.6-1.2-1.5-1.9-2.7-1.9c-1,0-1.7,0.4-2.2,1.3C216.5,110.3,216.2,111.5,216.2,113.2z"/>
	<path class="st7" d="M227.3,103.1c0-0.4,0.1-0.7,0.3-0.9c0.2-0.2,0.5-0.4,0.9-0.4s0.7,0.1,0.9,0.4s0.3,0.6,0.3,0.9
		c0,0.4-0.1,0.7-0.3,0.9c-0.2,0.2-0.5,0.4-0.9,0.4s-0.7-0.1-0.9-0.4C227.4,103.8,227.3,103.5,227.3,103.1z M229.4,119.5h-2v-13h2
		V119.5z"/>
	<path class="st7" d="M239.5,116.1c0-0.6-0.2-1.1-0.6-1.4c-0.4-0.3-1.1-0.6-2.1-0.9c-1-0.2-1.8-0.5-2.4-0.9c-0.6-0.3-1-0.7-1.3-1.2
		s-0.4-1-0.4-1.7c0-1.1,0.4-2,1.2-2.7c0.8-0.7,1.8-1.1,3-1.1c1.3,0,2.3,0.4,3.2,1.1c0.8,0.8,1.2,1.7,1.2,2.9h-2
		c0-0.6-0.2-1.1-0.7-1.6s-1-0.7-1.7-0.7c-0.7,0-1.3,0.2-1.7,0.5c-0.4,0.4-0.6,0.8-0.6,1.4c0,0.5,0.2,0.9,0.6,1.2
		c0.4,0.3,1,0.5,2,0.8s1.8,0.5,2.4,0.9c0.6,0.3,1.1,0.8,1.3,1.2c0.3,0.5,0.4,1.1,0.4,1.8c0,1.2-0.4,2.1-1.2,2.8
		c-0.8,0.7-1.9,1-3.2,1c-0.9,0-1.7-0.2-2.4-0.6c-0.7-0.4-1.3-0.9-1.7-1.5c-0.4-0.7-0.6-1.4-0.6-2.1h2c0,0.7,0.3,1.3,0.8,1.8
		c0.5,0.4,1.1,0.7,1.9,0.7c0.7,0,1.3-0.2,1.8-0.5C239.3,117.1,239.5,116.6,239.5,116.1z"/>
	<path class="st7" d="M247.1,103.4v3.1h2.1v1.7h-2.1v8c0,0.5,0.1,0.9,0.3,1.2s0.5,0.4,1,0.4c0.2,0,0.5,0,0.9-0.1v1.8
		c-0.5,0.2-1,0.2-1.5,0.2c-0.9,0-1.5-0.3-2-0.9s-0.7-1.4-0.7-2.5v-8H243v-1.7h2.1v-3.1H247.1z"/>
	<path class="st7" d="M256.6,119.7c-1.6,0-2.8-0.6-3.8-1.7c-1-1.2-1.5-2.7-1.5-4.6V113c0-1.3,0.2-2.4,0.7-3.4s1-1.8,1.8-2.4
		c0.8-0.6,1.6-0.9,2.5-0.9c1.5,0,2.6,0.6,3.5,1.7c0.8,1.1,1.2,2.7,1.2,4.8v0.9h-7.8c0,1.3,0.4,2.3,1,3.1c0.6,0.8,1.4,1.2,2.4,1.2
		c0.7,0,1.3-0.2,1.8-0.5s0.9-0.7,1.3-1.3l1.2,1.1C260,118.9,258.5,119.7,256.6,119.7z M256.4,108.1c-0.8,0-1.5,0.3-2,1
		c-0.5,0.7-0.9,1.6-1,2.7h5.7v-0.2c-0.1-1.1-0.3-2-0.8-2.6S257.2,108.1,256.4,108.1z"/>
	<path class="st6" d="M180.1,141.9l-1.6,2v5h-3.2v-17.4h3.2v7.9l1.4-2.2l3.9-5.7h3.9l-5.5,7.7l5.6,9.7H184L180.1,141.9z"/>
	<path class="st7" d="M189.5,132.5c0-0.4,0.1-0.7,0.3-0.9c0.2-0.2,0.5-0.4,0.9-0.4s0.7,0.1,0.9,0.4s0.3,0.6,0.3,0.9
		s-0.1,0.7-0.3,0.9s-0.5,0.4-0.9,0.4s-0.7-0.1-0.9-0.4C189.6,133.2,189.5,132.9,189.5,132.5z M191.6,148.9h-2v-13h2V148.9z"/>
	<path class="st7" d="M197,136l0.1,1.6c0.9-1.2,2-1.9,3.4-1.9c2.4,0,3.6,1.5,3.7,4.6v8.6h-2v-8.6c0-0.9-0.2-1.6-0.6-2.1
		c-0.4-0.4-0.9-0.7-1.7-0.7c-0.6,0-1.2,0.2-1.7,0.6c-0.5,0.4-0.9,0.9-1.1,1.5v9.2h-2v-13H197z"/>
	<path class="st7" d="M207,142.3c0-2,0.4-3.6,1.2-4.8c0.8-1.2,1.9-1.8,3.3-1.8c1.4,0,2.5,0.6,3.3,1.7l0.1-1.4h1.8v12.6
		c0,1.7-0.4,3-1.3,4s-2.1,1.4-3.5,1.4c-0.8,0-1.6-0.2-2.4-0.6c-0.8-0.4-1.4-0.9-1.8-1.6l1-1.3c0.8,1.2,1.9,1.8,3.1,1.8
		c1,0,1.7-0.3,2.2-0.9s0.8-1.5,0.8-2.6v-1.1c-0.8,1-1.9,1.5-3.2,1.5c-1.3,0-2.4-0.6-3.3-1.8C207.4,146.1,207,144.5,207,142.3z
		 M208.9,142.6c0,1.5,0.3,2.6,0.8,3.4c0.5,0.8,1.3,1.3,2.2,1.3c1.2,0,2.1-0.6,2.7-1.9v-5.9c-0.6-1.2-1.5-1.9-2.7-1.9
		c-1,0-1.7,0.4-2.2,1.3C209.2,139.7,208.9,141,208.9,142.6z"/>
	<path class="st7" d="M224.7,149.2c-1.6,0-2.8-0.6-3.8-1.7s-1.5-2.7-1.5-4.6v-0.4c0-1.3,0.2-2.4,0.7-3.4s1-1.8,1.8-2.4
		c0.8-0.6,1.6-0.9,2.5-0.9c1.5,0,2.6,0.6,3.5,1.7c0.8,1.1,1.2,2.7,1.2,4.8v0.9h-7.8c0,1.3,0.4,2.3,1,3.1c0.6,0.8,1.4,1.2,2.4,1.2
		c0.7,0,1.3-0.2,1.8-0.5c0.5-0.3,0.9-0.7,1.3-1.3l1.2,1.1C228,148.3,226.6,149.2,224.7,149.2z M224.4,137.6c-0.8,0-1.5,0.3-2,1
		c-0.5,0.7-0.9,1.6-1,2.7h5.7v-0.2c-0.1-1.1-0.3-2-0.8-2.6S225.3,137.6,224.4,137.6z"/>
	<path class="st7" d="M237.3,138c-0.3-0.1-0.6-0.1-1-0.1c-1.3,0-2.2,0.6-2.6,1.9v9.2h-2v-13h1.9l0,1.5c0.6-1.2,1.6-1.7,2.7-1.7
		c0.4,0,0.7,0.1,0.9,0.2V138z"/>
	<path class="st7" d="M246.1,145.5c0-0.6-0.2-1.1-0.6-1.4s-1.1-0.6-2.1-0.9c-1-0.2-1.8-0.5-2.4-0.9c-0.6-0.3-1-0.7-1.3-1.2
		s-0.4-1-0.4-1.7c0-1.1,0.4-2,1.2-2.7c0.8-0.7,1.8-1.1,3-1.1c1.3,0,2.3,0.4,3.2,1.1c0.8,0.8,1.2,1.7,1.2,2.9h-2
		c0-0.6-0.2-1.1-0.7-1.6c-0.5-0.4-1-0.7-1.7-0.7c-0.7,0-1.3,0.2-1.7,0.5c-0.4,0.4-0.6,0.8-0.6,1.4c0,0.5,0.2,0.9,0.6,1.2
		c0.4,0.3,1,0.5,2,0.8c1,0.2,1.8,0.5,2.4,0.9c0.6,0.3,1.1,0.8,1.3,1.2c0.3,0.5,0.4,1.1,0.4,1.8c0,1.2-0.4,2.1-1.2,2.8
		c-0.8,0.7-1.9,1-3.2,1c-0.9,0-1.7-0.2-2.4-0.6s-1.3-0.9-1.7-1.5c-0.4-0.7-0.6-1.4-0.6-2.1h2c0,0.7,0.3,1.3,0.8,1.8
		c0.5,0.4,1.1,0.7,1.9,0.7c0.7,0,1.3-0.2,1.8-0.5C245.9,146.5,246.1,146.1,246.1,145.5z"/>
	<path class="st7" d="M253,137.5c0.9-1.2,2-1.8,3.4-1.8c2.4,0,3.6,1.5,3.7,4.6v8.6h-2v-8.6c0-0.9-0.2-1.6-0.6-2.1
		c-0.4-0.4-0.9-0.7-1.7-0.7c-0.6,0-1.2,0.2-1.7,0.6c-0.5,0.4-0.9,0.9-1.1,1.5v9.2h-2v-18.4h2V137.5z"/>
	<path class="st7" d="M268.1,149.2c-1.6,0-2.8-0.6-3.8-1.7s-1.5-2.7-1.5-4.6v-0.4c0-1.3,0.2-2.4,0.7-3.4s1-1.8,1.8-2.4
		c0.8-0.6,1.6-0.9,2.5-0.9c1.5,0,2.6,0.6,3.5,1.7c0.8,1.1,1.2,2.7,1.2,4.8v0.9h-7.8c0,1.3,0.4,2.3,1,3.1c0.6,0.8,1.4,1.2,2.4,1.2
		c0.7,0,1.3-0.2,1.8-0.5c0.5-0.3,0.9-0.7,1.3-1.3l1.2,1.1C271.4,148.3,270,149.2,268.1,149.2z M267.8,137.6c-0.8,0-1.5,0.3-2,1
		c-0.5,0.7-0.9,1.6-1,2.7h5.7v-0.2c-0.1-1.1-0.3-2-0.8-2.6S268.6,137.6,267.8,137.6z"/>
	<path class="st7" d="M275.2,132.5c0-0.4,0.1-0.7,0.3-0.9c0.2-0.2,0.5-0.4,0.9-0.4s0.7,0.1,0.9,0.4s0.3,0.6,0.3,0.9
		s-0.1,0.7-0.3,0.9s-0.5,0.4-0.9,0.4s-0.7-0.1-0.9-0.4C275.3,133.2,275.2,132.9,275.2,132.5z M277.3,148.9h-2v-13h2V148.9z"/>
	<path class="st7" d="M282.6,136l0.1,1.4c0.8-1.1,2-1.7,3.4-1.7c1.6,0,2.7,0.7,3.3,2.1c0.4-0.6,0.9-1.1,1.5-1.5
		c0.6-0.4,1.3-0.6,2.2-0.6c2.5,0,3.8,1.5,3.8,4.5v8.7h-2v-8.5c0-0.9-0.2-1.6-0.6-2.1s-1-0.7-1.9-0.7c-0.7,0-1.3,0.2-1.8,0.7
		s-0.8,1.2-0.8,2v8.6h-2v-8.5c0-1.9-0.8-2.8-2.4-2.8c-1.3,0-2.2,0.6-2.6,1.9v9.5h-2v-13H282.6z"/>
</g>
<circle class="st7" cx="228.4" cy="102.6" r="2.5"/>
</svg>
